<svg width="442" height="326" viewBox="0 0 442 326" fill="none" xmlns="http://www.w3.org/2000/svg">
<g clip-path="url(#clip0_358_147)">
<path d="M78.76 251.564C78.76 251.564 64.18 301.896 7.66003 316.755L109.4 322.491H430.66C430.66 322.491 439.12 318.36 389.46 292.512C354.06 261.971 362.12 251.564 362.12 251.564L340.98 260.768C340.98 260.768 329.68 258.141 322.38 251.564C313.62 254.391 292.84 264.718 292.84 264.718L268.76 254.391L261.48 250.1L237.42 264.718L208.62 252.646L184.56 266.182L152.48 254.391L126.6 260.748L100.34 250.08L78.82 251.543L78.76 251.564Z" fill="#2A6BB5"/>
<path d="M172.1 173.478C178.02 183.584 193.92 208.289 219.8 209.613C219.8 209.613 220.6 209.653 221.02 209.653C221.42 209.653 222.24 209.613 222.24 209.613C248.12 208.289 264.02 183.584 269.94 173.478C270.96 171.733 268.12 170.048 264.6 170.309C261.08 170.57 256.52 170.51 250.12 169.788C244.86 169.206 240.04 167.843 236.24 165.877C234.84 165.156 233.38 164.454 231.94 163.792C225.72 160.965 216.36 160.965 210.12 163.792C208.68 164.454 207.22 165.156 205.82 165.877C202.02 167.843 197.2 169.206 191.94 169.788C185.54 170.49 180.84 170.55 177.46 170.309C174.08 170.069 171.1 171.733 172.12 173.478H172.1Z" fill="#EBB426"/>
<path d="M221.08 214.666H220.92C220.36 214.666 219.54 214.626 219.54 214.626C205.84 213.924 185.74 206.665 167.78 176.024C166.54 173.919 166.58 171.432 167.86 169.387C169.6 166.559 173.4 164.995 177.78 165.316C181.48 165.577 186.06 165.416 191.36 164.815C196.02 164.293 200.2 163.13 203.48 161.426C204.96 160.664 206.5 159.922 208.02 159.24C215.54 155.831 226.44 155.831 233.96 159.24C235.48 159.942 237.04 160.664 238.5 161.426C241.76 163.13 245.96 164.293 250.62 164.815C255.94 165.396 260.5 165.577 264.2 165.316C268.56 165.015 272.38 166.559 274.12 169.387C275.4 171.452 275.42 173.939 274.2 176.024C256.24 206.665 236.14 213.924 222.44 214.626C222.44 214.626 221.62 214.666 221.06 214.666H221.08ZM220.98 204.64H221.12C221.38 204.64 221.94 204.62 221.96 204.62C236.9 203.858 250.98 193.791 262.84 175.423C258.98 175.543 254.52 175.342 249.52 174.781C243.64 174.119 238.24 172.595 233.9 170.329C232.58 169.647 231.2 168.986 229.84 168.364C224.96 166.158 217.04 166.158 212.16 168.364C210.8 168.986 209.42 169.647 208.1 170.329C203.76 172.595 198.34 174.139 192.48 174.781C187.48 175.342 183 175.543 179.16 175.423C191.04 193.791 205.1 203.858 220.04 204.62C220.04 204.62 220.58 204.64 220.88 204.64H220.98Z" fill="#231815"/>
<path d="M436.18 309.637C406.14 300.011 369.76 280.36 366.98 241.357C366.12 229.265 366.76 214.987 367.44 199.867C370.4 133.713 374.46 43.0937 251.2 25.3669C248.72 25.006 240.98 24.7854 231.94 24.7052L239.42 16.5035C241.28 14.4581 241.14 11.2898 239.1 9.42486C237.06 7.55994 233.9 7.70031 232.04 9.74571L225.84 16.5436V5.01323C225.84 2.24592 223.6 0 220.84 0C218.08 0 215.84 2.24592 215.84 5.01323V17.7468L208.54 9.72566C206.68 7.68026 203.52 7.53989 201.48 9.40481C199.44 11.2697 199.3 14.4381 201.16 16.4835L208.7 24.7453C201.84 24.8656 196.32 25.0661 194.26 25.3469C68.7799 43.0736 72.92 133.693 75.9399 199.867C76.6199 214.987 77.2799 229.285 76.3999 241.357C73.56 280.36 36.5 300.011 5.89995 309.637C1.85995 310.9 -0.50005 314.71 0.13995 318.901C0.77995 323.092 4.17995 326 8.39995 326H433.68C437.9 326 441.3 323.092 441.94 318.921C442.58 314.75 440.24 310.94 436.22 309.657L436.18 309.637ZM95.9999 98.2793C111.16 63.2268 143.76 42.6124 195.64 35.2931C201.52 34.4709 244.02 34.4709 249.78 35.2931C300.68 42.6124 332.64 63.2067 347.52 98.2592C360.6 129.04 358.92 166.439 357.44 199.426C356.76 214.847 356.1 229.425 357 242.079C357.1 243.422 357.22 244.746 357.4 246.049C353.86 249.939 347.08 255.875 340.62 255.875C340.56 255.875 340.52 255.875 340.46 255.875C336.5 255.815 332.94 253.489 329.56 248.776C327.96 246.55 325.48 245.107 322.78 244.806C320.08 244.505 317.4 245.387 315.38 247.172C310.46 251.584 300.58 258.883 289.94 258.221C283.38 257.82 277.22 254.371 271.62 247.994C269.84 245.949 267.26 244.746 264.58 244.685C261.84 244.685 259.3 245.708 257.44 247.653C248.22 257.299 233.46 265.48 215.46 249.639C211.84 246.45 206.38 246.49 202.78 249.719C194 257.62 176.48 268.127 157.88 249.799C154.62 246.591 149.5 246.169 145.72 248.816C138.14 254.13 122.96 260.828 106.42 245.969C103.16 243.041 98.4999 242.64 94.8199 244.966C90.4999 247.673 87.9799 246.37 86.1399 244.425C86.2199 243.643 86.3199 242.861 86.3799 242.059C87.2999 229.385 86.6399 214.807 85.9399 199.386C84.4399 166.399 82.7199 129.02 96.0399 98.2592L95.9999 98.2793ZM18.24 315.974C42.7599 306.809 75.1599 288.641 84.1399 255.173C88.9599 257.399 94.4999 256.938 99.9199 253.609C122.64 273.862 144.54 261.811 151.18 257.239C160.98 266.764 170.66 269.992 179.3 269.992C193.28 269.992 204.54 261.53 209.18 257.439C235.54 280.319 257.74 261.73 264.38 254.892C271.74 263.174 280.14 267.666 289.36 268.228C303.38 269.09 315.52 260.427 321.7 254.953C326.94 262.111 333.22 265.781 340.36 265.861C340.44 265.861 340.54 265.861 340.62 265.861C348.2 265.861 355.02 261.61 359.84 257.519C369.5 289.484 400.4 307.01 423.94 315.953H18.24V315.974Z" fill="#231815"/>
<path d="M288.64 132.71C299.84 132.71 308.92 123.607 308.92 112.377C308.92 101.147 299.84 92.043 288.64 92.043C277.44 92.043 268.36 101.147 268.36 112.377C268.36 123.607 277.44 132.71 288.64 132.71Z" fill="#231815"/>
<path d="M150.72 132.71C161.9 132.71 171 123.586 171 112.377C171 101.167 161.9 92.043 150.72 92.043C139.54 92.043 130.44 101.167 130.44 112.377C130.44 123.586 139.54 132.71 150.72 132.71Z" fill="#231815"/>
<path d="M154.38 116.487C158.39 116.487 161.64 113.228 161.64 109.208C161.64 105.188 158.39 101.929 154.38 101.929C150.37 101.929 147.12 105.188 147.12 109.208C147.12 113.228 150.37 116.487 154.38 116.487Z" fill="white"/>
<path d="M293.3 116.487C297.31 116.487 300.56 113.228 300.56 109.208C300.56 105.188 297.31 101.929 293.3 101.929C289.29 101.929 286.04 105.188 286.04 109.208C286.04 113.228 289.29 116.487 293.3 116.487Z" fill="white"/>
<path d="M273.14 166.559C266.82 152.362 249.9 117.65 222.3 115.785C222.3 115.785 221.44 115.725 221 115.745C220.56 115.745 219.7 115.785 219.7 115.785C192.12 117.65 175.18 152.362 168.86 166.559C167.76 169.026 170.8 171.372 174.54 171.031C178.28 170.69 183.16 170.75 189.98 171.753C195.58 172.575 200.72 177.007 204.76 179.774C206.24 180.797 207.8 181.779 209.34 182.702C215.98 186.672 225.96 186.672 232.58 182.702C234.12 181.779 235.68 180.797 237.16 179.774C241.2 177.007 246.34 172.575 251.94 171.753C258.76 170.75 263.76 170.69 267.38 171.031C271 171.372 274.16 169.026 273.06 166.559H273.14Z" fill="#EBB426"/>
<path d="M221 190.683C215.96 190.683 210.92 189.46 206.82 186.993C205.06 185.95 203.44 184.908 201.98 183.905C201.22 183.384 200.42 182.802 199.58 182.2C196.34 179.854 192.68 177.207 189.3 176.706C183.72 175.884 178.92 175.663 175.04 176.024C170.96 176.405 167.16 174.861 165.1 171.994C163.52 169.768 163.22 166.98 164.32 164.514C174.78 140.992 192.82 112.577 219.38 110.792C219.38 110.792 220.34 110.752 221 110.732C221.64 110.732 222.64 110.792 222.64 110.792C237.28 111.775 258.74 121.901 277.68 164.514C278.78 166.98 278.48 169.768 276.9 171.994C274.86 174.841 271.06 176.385 266.96 176.004C263.08 175.643 258.28 175.884 252.7 176.686C249.32 177.187 245.64 179.834 242.42 182.18C241.58 182.782 240.78 183.364 240.02 183.885C238.56 184.888 236.94 185.93 235.18 186.973C231.08 189.44 226.04 190.663 221 190.663V190.683ZM178.8 165.837C182.38 165.837 186.38 166.158 190.74 166.8C196.54 167.642 201.48 171.211 205.44 174.079C206.2 174.62 206.94 175.162 207.62 175.643C208.92 176.525 210.36 177.448 211.94 178.39C217.02 181.438 224.98 181.438 230.06 178.39C231.64 177.448 233.1 176.525 234.38 175.643C235.08 175.162 235.8 174.641 236.56 174.079C240.52 171.211 245.46 167.642 251.26 166.8C257.4 165.897 262.82 165.637 267.36 165.998C254.2 137.523 238.54 121.921 221.94 120.798C221.9 120.798 221.42 120.758 221.14 120.758H220.8C220.52 120.758 220.06 120.798 220.04 120.798C203.42 121.921 187.76 137.523 174.6 165.998C175.92 165.897 177.3 165.837 178.76 165.837H178.8Z" fill="#231815"/>
<path d="M131.08 104.997C129.36 104.997 127.68 104.094 126.74 102.49C125.36 100.084 126.18 97.0358 128.58 95.6321L160.64 77.0831C163.02 75.6995 166.08 76.5217 167.48 78.928C168.86 81.3344 168.04 84.3824 165.64 85.7861L133.58 104.335C132.8 104.796 131.94 104.997 131.08 104.997Z" fill="#231815"/>
<path d="M308.72 104.997C307.88 104.997 307.02 104.777 306.22 104.335L274.16 85.7865C271.76 84.4028 270.94 81.3347 272.32 78.9284C273.7 76.522 276.76 75.7199 279.16 77.0835L311.22 95.6324C313.62 97.0161 314.44 100.084 313.06 102.491C312.14 104.095 310.46 104.997 308.72 104.997Z" fill="#231815"/>
</g>
<defs>
<clipPath id="clip0_358_147">
<rect width="442" height="326" fill="white"/>
</clipPath>
</defs>
</svg>
