<svg width="537" height="551" viewBox="0 0 537 551" fill="none" xmlns="http://www.w3.org/2000/svg">
<path d="M308.14 535.384C284.07 535.384 260.437 527.537 237.776 512.022C218.86 499.093 24.6422 337.347 22.6485 335.742C11.3669 326.112 0.766147 311.712 14.5277 298.159C20.0226 292.72 26.9277 289.867 34.4163 289.867C42.8775 289.867 51.7277 293.389 59.2649 299.853L139.549 365.702C141.105 366.95 143.001 367.574 144.898 367.574C147.037 367.574 149.226 366.772 150.782 365.211C153.748 362.269 153.602 357.677 150.441 354.913L22.0163 241.717C14.8681 235.609 10.3944 228.253 9.47046 220.897C8.49791 213.541 11.0752 206.586 16.9591 200.835C22.454 195.396 29.3591 192.542 36.8477 192.542C45.3089 192.542 54.1591 196.065 61.6963 202.529L192.845 311.712C194.401 313.005 196.297 313.629 198.242 313.629C200.382 313.629 202.521 312.827 204.126 311.266C207.141 308.324 206.995 303.687 203.786 300.923L45.9897 162.85C38.8414 156.743 34.4163 149.386 33.4438 142.075C32.4712 134.719 35.0485 127.764 40.9324 122.013C46.4273 116.573 53.3324 113.72 60.821 113.72C69.2822 113.72 78.1324 117.242 85.6696 123.707L246.286 257.455C247.842 258.748 249.739 259.372 251.684 259.372C253.823 259.372 255.963 258.57 257.568 257.054C260.583 254.111 260.437 249.475 257.227 246.711L140.376 144.081C127.927 133.426 121.557 116.707 135.27 103.199C140.765 97.7595 147.67 94.9062 155.158 94.9062C163.619 94.9062 172.47 98.4283 180.007 104.893C222.702 140.737 334.253 234.45 338.241 238.061C341.353 241.271 344.854 241.985 347.188 241.985C356.233 241.985 360.609 232.622 360.998 223.349C361.436 212.337 358.226 198.695 355.163 185.498C351.808 171.098 348.306 156.208 349.863 146.132C352.926 125.891 372.863 112.962 385.215 112.962C386.673 112.962 387.938 113.141 388.862 113.542C407.826 120.987 407.535 131.42 404.86 156.52L404.325 161.424C401.748 186.435 413.905 209.306 425.673 231.419C430.876 241.227 436.273 251.392 440.358 261.646C442.303 266.55 445.026 272.123 448.236 278.587C469.486 321.743 505.081 394.012 416.482 481.885C380.79 517.417 344.319 535.384 308.14 535.384Z" fill="url(#paint0_radial_943_897)"/>
<path d="M155.158 102.306C161.577 102.306 168.482 105.159 174.609 110.376C235.053 161.111 326.327 237.793 332.405 243.143C337.9 248.537 343.978 249.34 347.139 249.34C359.588 249.34 368.341 238.997 368.973 223.616C369.459 211.668 366.152 197.579 362.992 183.982C359.782 170.206 356.427 155.939 357.789 147.201C360.317 130.572 376.948 120.362 385.214 120.362H385.798H385.847C399.025 125.534 399.608 130.482 396.885 155.85L396.35 160.799C393.578 187.86 406.222 211.668 418.476 234.717C423.63 244.391 428.931 254.378 432.821 264.231C434.863 269.402 437.683 275.109 440.893 281.662C461.316 323.169 495.55 392.629 410.549 476.935C376.413 510.773 341.936 527.982 308.091 527.982C285.82 527.982 263.743 520.626 242.542 506.092C227.078 495.526 82.46 375.598 28.1918 330.391C21.7244 324.863 17.5424 319.157 16.3753 314.342C15.6946 311.444 15.5973 307.877 20.4114 303.151C24.3989 299.228 29.1157 297.222 34.4647 297.222C40.8836 297.222 47.7887 300.075 53.8185 305.202C53.9157 305.291 53.9644 305.336 54.0616 305.381L134.2 371.14C137.263 373.637 141.105 374.885 144.898 374.885C149.225 374.885 153.505 373.28 156.665 370.159C162.647 364.274 162.355 355.09 156.033 349.517L27.6083 236.411C27.5597 236.366 27.511 236.322 27.4138 236.233C21.7244 231.373 18.1746 225.622 17.4451 220.005C16.7644 214.788 18.5636 210.018 22.8428 205.827C26.8302 201.904 31.5471 199.898 36.8961 199.898C43.3149 199.898 50.22 202.751 56.3957 208.012L187.447 317.106C190.51 319.647 194.4 320.94 198.242 320.94C202.57 320.94 206.849 319.379 210.01 316.259C215.991 310.374 215.699 301.145 209.329 295.572L51.4357 157.366C42.6828 149.876 36.2153 137.437 46.8161 126.96C50.8036 123.037 55.5204 121.031 60.8694 121.031C67.2883 121.031 74.1934 123.884 80.369 129.145L240.937 262.849C244 265.39 247.891 266.683 251.732 266.683C256.011 266.683 260.339 265.122 263.5 262.001C269.481 256.117 269.189 246.888 262.868 241.315L145.773 138.641C140.084 133.781 136.534 128.03 135.804 122.413C135.124 117.197 136.923 112.426 141.202 108.236C145.141 104.312 149.858 102.306 155.158 102.306ZM155.158 87.5938C145.87 87.5938 136.777 90.9375 129.385 98.2044C113.63 113.719 117.812 134.896 134.783 149.385L251.683 251.97L91.1157 118.267C82.1196 110.598 71.3243 106.319 60.8208 106.319C51.533 106.319 42.4397 109.662 35.0483 116.929C19.293 132.444 23.4749 153.621 40.4459 168.11L198.193 306.183L67.1424 197.134C58.1463 189.465 47.351 185.185 36.8475 185.185C27.5597 185.185 18.4663 188.529 11.075 195.796C-4.68033 211.311 -0.498375 232.488 16.4726 246.977L144.898 360.173L64.7596 294.458C55.7636 286.79 44.9683 282.51 34.4647 282.51C25.1769 282.51 16.0836 285.853 8.69221 293.12C-7.06308 308.635 0.279664 326.691 17.2993 341.18C17.2993 341.18 213.56 504.621 233.011 517.906C249.155 528.918 275.219 542.694 308.189 542.694C340.623 542.694 379.671 529.364 422.463 486.921C528.325 381.884 462.289 295.26 447.992 259.148C434.669 225.577 408.993 195.662 412.397 162.136C415.12 135.431 418.913 117.241 392.071 106.764C390.077 105.962 387.743 105.605 385.263 105.605C369.411 105.605 345.632 120.674 341.936 145.105C338.727 166.193 353.85 201.146 353.023 223.036C352.829 228.475 350.592 234.583 347.236 234.583C346.264 234.583 345.194 234.093 344.076 232.934C341.936 230.749 185.55 99.4973 185.55 99.4973C176.457 91.8291 165.662 87.5938 155.158 87.5938Z" fill="#EDA600"/>
<path d="M302.11 543.636C229.169 543.636 192.115 498.608 176.554 471.769C165.467 452.643 69.1847 243.817 68.2122 241.722C64.3706 232.85 63.1549 224.691 64.7596 218.36C66.3643 211.896 70.8867 207.438 78.5212 204.629C82.1196 203.336 85.7181 202.667 89.2679 202.667C101.425 202.667 112.512 210.737 118.153 223.755L159.826 314.837C161.139 317.646 164.105 319.34 167.218 319.34C168.19 319.34 169.211 319.162 170.184 318.805C174.269 317.334 176.262 313.099 174.706 309.354L111.685 156.613C105.412 142.079 107.503 124.469 126.225 117.692C129.823 116.4 133.422 115.731 136.971 115.731C149.177 115.731 160.215 123.8 165.856 136.818L233.205 287.018C234.469 289.871 237.484 291.565 240.645 291.565C241.618 291.565 242.639 291.387 243.611 291.03C247.696 289.559 249.738 285.324 248.134 281.579L170.281 94.7769C164.008 80.2875 166.099 62.6773 184.821 55.8562C188.419 54.5633 192.018 53.8945 195.567 53.8945C207.773 53.8945 218.811 61.964 224.452 74.9822L306.924 258.975C308.189 261.828 311.203 263.523 314.364 263.523C315.337 263.523 316.358 263.344 317.33 262.988C321.415 261.516 323.458 257.281 321.901 253.536L264.229 114.973C257.956 100.439 260.047 82.8733 278.769 76.0522C282.367 74.7593 285.966 74.0905 289.516 74.0905C301.721 74.0905 312.76 82.16 318.4 95.1782C340.185 144.353 397.128 272.84 398.976 277.7C400.824 283.54 405.832 285.68 409.82 285.68C418.719 285.68 424.749 276.229 426.402 273.331C431.313 264.682 432.675 254.784 434.085 244.352C436.127 229.239 438.267 213.59 451.688 200.126C462.824 188.936 477.12 182.516 490.785 182.516C497.301 182.516 503.185 183.987 507.707 186.751C518.988 193.661 519.572 200.349 518.648 205.966C516.995 216.042 508.339 229.016 500.121 240.34C483.199 263.612 481.205 298.877 479.454 329.996C478.919 339.18 478.433 347.829 477.607 355.854C476.926 362.496 477.169 370.477 477.509 379.661C479.065 426.294 481.448 496.735 370.334 532C346.215 539.757 323.263 543.636 302.11 543.636Z" fill="url(#paint1_radial_943_897)"/>
<path d="M195.519 61.3038C204.321 61.3038 212.539 67.5899 217.012 77.9331L299.436 261.837C301.965 267.544 307.994 270.976 314.316 270.976C316.261 270.976 318.303 270.664 320.2 269.951C328.369 266.964 332.405 258.538 329.293 251.003L271.67 112.173C268.801 105.53 268.314 98.9316 270.26 93.5817C272.059 88.5884 275.949 85.0218 281.736 82.9264C284.41 81.9456 287.036 81.4552 289.516 81.4552C298.318 81.4552 306.536 87.7413 310.961 98.0399C341.839 167.678 388.376 272.849 391.342 280.071C394.114 288.007 401.31 293.089 409.772 293.089C423.193 293.089 431.314 280.606 433.502 276.772C439.094 266.919 440.601 255.952 442.012 245.341C444.005 230.718 445.902 216.898 457.572 205.172C467.201 195.498 479.309 189.925 490.736 189.925C495.599 189.925 500.024 190.995 503.185 192.912C511.111 197.772 511.257 201.204 510.674 204.905C509.263 213.598 500.705 226.26 493.362 236.291C475.224 261.257 473.182 297.592 471.334 329.647C470.799 338.742 470.313 347.347 469.535 355.193C468.805 362.282 469.048 370.485 469.389 379.937C470.167 402.406 471.091 430.404 458.739 456.887C444.248 487.916 414.44 510.207 367.612 525.098C344.368 532.499 322.291 536.244 302.013 536.244C233.254 536.244 198.291 493.667 183.557 468.3C174.463 452.696 102.592 297.637 75.6039 239.011C66.1702 217.031 77.5976 212.841 81.3905 211.458C84.065 210.478 86.6909 209.987 89.1709 209.987C97.9725 209.987 106.191 216.273 110.567 226.438L110.713 226.706L152.338 317.61C154.915 323.227 160.848 326.66 167.169 326.66C169.163 326.66 171.157 326.304 173.102 325.59C181.223 322.603 185.259 314.222 182.195 306.687L119.174 153.991C119.125 153.902 119.125 153.858 119.077 153.768C116.208 147.126 115.722 140.527 117.667 135.177C119.466 130.184 123.356 126.617 129.143 124.522C131.817 123.541 134.443 123.051 136.923 123.051C145.725 123.051 153.943 129.337 158.416 139.68L225.717 289.79C228.245 295.497 234.275 298.93 240.597 298.93C242.59 298.93 244.584 298.573 246.529 297.904C254.699 294.917 258.735 286.491 255.623 278.957L177.673 91.9767C173.248 81.7673 173.248 67.9912 187.739 62.7304C190.365 61.7942 192.991 61.3038 195.519 61.3038ZM195.519 46.5469C191.094 46.5469 186.474 47.3494 181.806 49.0435C160.313 56.8455 154.186 77.621 162.744 97.4158L240.597 284.218L173.296 134.107C166.586 118.637 152.873 108.339 136.972 108.339C132.547 108.339 127.927 109.141 123.259 110.835C101.765 118.637 95.6384 139.413 104.197 159.207L167.218 311.993L125.593 221.088C118.882 205.618 105.169 195.32 89.2682 195.32C84.8431 195.32 80.2235 196.122 75.5553 197.816C54.0619 205.618 52.2627 224.833 60.8211 244.628C60.8211 244.628 158.076 455.638 169.503 475.299C187.641 506.552 228.245 551.001 302.11 551.001C322.972 551.001 346.507 547.479 372.961 539.052C512.181 494.871 481.692 394.827 485.63 356.62C489.326 321.043 486.457 272.537 506.832 244.494C528.228 215.025 536.446 195.498 512.181 180.652C506.394 177.13 498.954 175.168 490.785 175.168C476.343 175.168 459.615 181.231 445.756 195.186C421.15 219.929 430.292 250.513 419.254 269.951C416.823 274.231 412.786 278.333 409.772 278.333C408.41 278.333 407.243 277.486 406.562 275.346C405.638 272.537 325.792 92.4225 325.792 92.4225C319.081 76.9523 305.368 66.6537 289.467 66.6537C285.042 66.6537 280.423 67.4562 275.754 69.1503C254.261 76.9523 248.134 97.7279 256.692 117.523L314.267 256.175L231.844 72.3157C225.182 56.8455 211.469 46.5469 195.519 46.5469Z" fill="#EDA600"/>
<path d="M438.898 133.832L521.03 104.363" stroke="#B0BEC5" stroke-width="31.5138" stroke-miterlimit="10" stroke-linecap="round" stroke-linejoin="round"/>
<path d="M362.164 88.0011L355.016 16" stroke="#B0BEC5" stroke-width="31.5138" stroke-miterlimit="10" stroke-linecap="round" stroke-linejoin="round"/>
<path d="M414.729 96.688L469.24 22.5469" stroke="#B0BEC5" stroke-width="31.5138" stroke-miterlimit="10" stroke-linecap="round" stroke-linejoin="round"/>
<defs>
<radialGradient id="paint0_radial_943_897" cx="0" cy="0" r="1" gradientUnits="userSpaceOnUse" gradientTransform="translate(133.197 203.376) rotate(-44.5399) scale(399.602 400.552)">
<stop offset="0.6" stop-color="#FFB300"/>
<stop offset="0.8984" stop-color="#FFCA28"/>
</radialGradient>
<radialGradient id="paint1_radial_943_897" cx="0" cy="0" r="1" gradientUnits="userSpaceOnUse" gradientTransform="translate(233.602 166.701) rotate(-19.966) scale(420.056 393.634)">
<stop offset="0.3533" stop-color="#FFCA28"/>
<stop offset="0.8723" stop-color="#FFB300"/>
</radialGradient>
</defs>
</svg>
