<svg width="661" height="596" viewBox="0 0 661 596" fill="none" xmlns="http://www.w3.org/2000/svg">
<path d="M576.633 280.372C627.004 145.462 595.966 42.2281 578.169 12.6163C571.125 0.880267 557.565 -2.37975 545.065 1.64094C512.12 12.2903 423.19 86.8359 383.889 191.156" fill="#FFC022"/>
<path d="M84.3646 280.372C33.9935 145.462 65.0318 42.2281 82.8285 12.6163C89.8731 0.880267 103.432 -2.37975 115.933 1.64094C148.878 12.2903 237.808 86.8359 277.109 191.156" fill="#FFC022"/>
<path d="M595.913 344.165C586.379 203.006 491.728 102.598 330.498 102.598C169.269 102.598 74.6178 203.006 65.0839 344.165C59.5224 426.426 91.8319 496.353 155.603 540.906C155.603 540.906 220.275 594.588 330.498 596.001C440.722 594.588 505.393 540.906 505.393 540.906C569.112 496.353 601.475 426.426 595.913 344.165Z" fill="#FFC022"/>
<path opacity="0.47" d="M278.17 204.309C284.155 209.525 296.284 208.765 303.329 200.397C311.856 190.237 320.755 156.007 315.193 103.086C290.458 104.01 267.047 107.65 245.225 113.79C262.862 143.456 267.1 194.638 278.17 204.309Z" fill="#FF7043"/>
<path opacity="0.47" d="M382.833 204.309C376.848 209.525 364.718 208.765 357.674 200.397C349.146 190.237 340.248 156.007 345.809 103.086C370.545 104.01 393.956 107.65 415.778 113.79C398.14 143.456 393.903 194.638 382.833 204.309Z" fill="#FF7043"/>
<path d="M639.877 310.848L550.258 356.108" stroke="#9E9E9E" stroke-width="19.2211" stroke-miterlimit="10" stroke-linecap="round"/>
<path d="M651.001 377.129L554.867 394.298" stroke="#9E9E9E" stroke-width="19.2211" stroke-miterlimit="10" stroke-linecap="round"/>
<path d="M639.877 464.823L550.258 433.418" stroke="#9E9E9E" stroke-width="19.2211" stroke-miterlimit="10" stroke-linecap="round"/>
<path d="M21.123 310.848L110.742 356.108" stroke="#9E9E9E" stroke-width="19.2211" stroke-miterlimit="10" stroke-linecap="round"/>
<path d="M10 377.129L106.134 394.298" stroke="#9E9E9E" stroke-width="19.2211" stroke-miterlimit="10" stroke-linecap="round"/>
<path d="M21.123 464.823L110.742 433.418" stroke="#9E9E9E" stroke-width="19.2211" stroke-miterlimit="10" stroke-linecap="round"/>
<path d="M163.974 341.448C162.385 341.448 160.796 341.122 159.26 340.416C153.328 337.753 150.574 330.636 153.222 324.55C155.076 320.204 172.29 281.898 202.746 281.898C232.831 281.898 251.316 318.519 253.329 322.703C256.189 328.68 253.805 335.906 247.979 338.84C242.153 341.774 236.485 338.188 232.248 333.352C227.11 327.484 215.934 314.336 202.746 314.336C189.504 314.336 178.487 328.408 174.779 334.167C172.078 338.351 168.476 341.448 163.974 341.448Z" fill="black"/>
<path d="M497.027 341.448C498.616 341.448 500.205 341.122 501.741 340.416C507.673 337.753 510.427 330.636 507.779 324.55C505.925 320.204 488.711 281.898 458.255 281.898C428.17 281.898 409.685 318.519 407.672 322.703C404.812 328.68 407.196 335.906 413.022 338.84C418.848 341.774 424.516 338.188 428.753 333.352C433.891 327.484 445.067 314.336 458.255 314.336C471.497 314.336 482.514 328.408 486.222 334.167C488.923 338.351 492.525 341.448 497.027 341.448Z" fill="black"/>
<path d="M287.916 377.949C287.652 362.409 309.421 354.911 330.025 354.585C350.629 354.205 372.769 361.105 373.033 376.645C373.298 392.184 347.292 412.722 330.925 412.722C314.559 412.722 288.181 393.488 287.916 377.949Z" fill="black"/>
<path d="M468.532 450.771C459.845 441.697 445.809 439.035 432.78 444.033C418.426 449.575 374.517 466.473 352.165 451.912C332.514 439.143 333.574 413.172 333.574 413.172H325.258C325.258 413.172 326.582 441.48 308.785 451.912C285.745 465.495 242.524 449.521 228.17 444.033C215.194 439.035 201.158 441.697 192.418 450.771C184.208 459.301 182.778 471.526 188.604 482.719C200.893 506.354 244.643 546.343 330.449 546.669C416.254 546.398 460.004 506.354 472.292 482.719C478.172 471.526 476.742 459.301 468.532 450.771Z" fill="white"/>
<path d="M476.58 442.166C467.364 431.897 452.533 428.909 438.762 434.56C423.561 440.808 377.109 459.988 353.433 443.47C332.617 429.018 341.092 406.523 341.092 406.523H319.905C319.905 406.523 326.367 431.626 307.564 443.47C283.147 458.847 237.437 440.754 222.235 434.56C208.464 428.909 193.633 431.897 184.417 442.166C175.731 451.838 174.195 465.693 180.392 478.352C193.422 505.085 239.714 550.399 330.499 550.725C421.336 550.399 467.576 505.085 480.605 478.352C486.803 465.693 485.267 451.838 476.58 442.166ZM466.41 471.072C455.764 492.859 413.709 534.153 330.499 534.425C247.288 534.099 205.233 492.859 194.587 471.072C191.356 464.389 191.886 457.869 196.07 453.196C199.089 449.827 203.485 448.034 208.252 448.034C210.848 448.034 213.602 448.578 216.303 449.664C246.017 461.889 288.761 475.907 316.357 457.054C322.713 452.707 327.162 449.121 330.34 446.187C330.393 446.241 330.446 446.296 330.499 446.296C330.552 446.241 330.605 446.187 330.658 446.187C333.836 449.121 338.338 452.707 344.641 457.054C372.236 475.907 414.98 461.889 444.694 449.664C447.396 448.578 450.097 448.034 452.745 448.034C457.512 448.034 461.908 449.827 464.927 453.196C469.112 457.923 469.641 464.389 466.41 471.072Z" fill="black"/>
<path d="M218.898 446.195V513.189" stroke="black" stroke-width="12.814" stroke-miterlimit="10"/>
<path d="M274.727 456.848V531.013" stroke="black" stroke-width="12.814" stroke-miterlimit="10"/>
<path d="M330.498 431.316V539.494" stroke="black" stroke-width="12.814" stroke-miterlimit="10"/>
<path d="M442.1 439.953V506.946" stroke="black" stroke-width="12.814" stroke-miterlimit="10"/>
<path d="M386.273 451.309V528.354" stroke="black" stroke-width="12.814" stroke-miterlimit="10"/>
<path d="M479.654 156.547C471.497 149.538 471.709 138.237 476.476 128.511C487.917 105.093 515.301 80.8064 524.994 72.928C540.883 59.9966 553.172 55.6499 557.886 76.4597C566.625 114.928 565.937 167.142 556.561 195.939C553.278 206.1 543.108 211.479 535.269 204.47L479.654 156.547Z" fill="#FFD1D1"/>
<path d="M181.346 156.547C189.503 149.538 189.291 138.237 184.524 128.511C173.083 105.093 145.7 80.8064 136.007 72.928C120.117 59.9966 107.829 55.6499 103.115 76.4597C94.3752 114.928 95.0638 167.142 104.439 195.939C107.723 206.1 117.892 211.479 125.731 204.47L181.346 156.547Z" fill="#FFD1D1"/>
</svg>
