<svg width="522" height="521" viewBox="0 0 522 521" fill="none" xmlns="http://www.w3.org/2000/svg">
<path d="M521.242 260.652C521.242 404.711 404.953 521 260.894 521C116.835 521 0.546875 404.711 0.546875 260.652C0.546875 116.593 116.835 0.304688 260.894 0.304688C404.953 0.304688 521.242 116.593 521.242 260.652Z" fill="#FFDD67"/>
<path d="M519.506 97.5165C515.167 74.0853 502.15 54.9931 480.454 48.9184C457.023 42.8436 436.195 51.5218 416.235 72.3496C404.953 41.1079 387.597 17.6767 359.826 5.52711C332.056 -6.62243 304.286 2.05581 286.929 23.7514C268.705 46.3149 261.762 81.8957 280.854 127.89C299.079 171.282 379.786 258.064 382.39 260.668C385.861 258.932 476.115 202.523 497.81 174.753C519.506 147.85 523.845 120.948 519.506 97.5165ZM234.86 23.7514C217.503 2.05581 189.733 -6.62243 161.962 5.52711C134.192 17.6767 116.835 41.1079 105.554 72.3496C84.7259 52.3897 63.8981 42.8436 40.4668 49.7862C19.639 55.861 5.75383 74.9531 1.41471 98.3844C-2.92441 120.948 2.28253 148.718 23.1103 175.621C45.6738 202.523 135.928 258.932 139.399 260.668C142.002 258.064 222.71 171.282 240.934 127.89C260.026 81.8957 253.084 47.1827 234.86 23.7514Z" fill="#F46767"/>
<path d="M408.425 313.619C408.425 306.677 404.086 297.998 392.804 295.395C362.43 289.32 318.171 284.113 260.894 284.113C203.618 284.113 159.359 290.188 128.985 295.395C116.836 297.998 113.364 306.677 113.364 313.619C113.364 376.971 161.962 440.322 260.894 440.322C359.826 439.454 408.425 376.103 408.425 313.619Z" fill="#664E27"/>
<path d="M371.107 315.334C352.015 311.863 312.095 306.656 260.894 306.656C209.692 306.656 169.772 311.863 150.68 315.334C139.398 317.07 138.53 321.409 139.398 328.352C140.266 331.823 140.266 337.03 142.002 342.237C142.869 347.444 144.605 350.048 153.283 349.18C169.772 347.444 352.883 347.444 369.372 349.18C378.05 350.048 378.918 347.444 380.653 342.237C381.521 337.03 382.389 332.691 383.257 328.352C383.257 321.409 382.389 317.07 371.107 315.334Z" fill="white"/>
</svg>
