<svg width="547" height="605" viewBox="0 0 547 605" fill="none" xmlns="http://www.w3.org/2000/svg">
<path fill-rule="evenodd" clip-rule="evenodd" d="M491.502 604.997H54.6104V211.688H491.502V604.997Z" fill="#FF3A2F"/>
<path opacity="0.35" fill-rule="evenodd" clip-rule="evenodd" d="M278.309 226.215H242.876V604.998H278.309V226.215Z" fill="#060606"/>
<path fill-rule="evenodd" clip-rule="evenodd" d="M290.772 226.215H255.339V604.998H290.772V226.215Z" fill="#0CB04A"/>
<path fill-rule="evenodd" clip-rule="evenodd" d="M413.501 12.6419C389.706 -11.1532 340.353 -0.374252 303.264 36.7148C289.341 50.6375 279.129 66.2866 273.058 81.6634C266.986 66.2866 256.774 50.6375 242.851 36.7148C205.76 -0.374252 156.404 -11.1532 132.612 12.6419C108.817 36.4341 119.598 85.7897 156.687 122.873C193.776 159.968 243.132 170.747 266.924 146.952C269.358 144.518 271.337 141.756 273.055 138.834C274.776 141.756 276.754 144.518 279.188 146.952C302.98 170.747 352.336 159.968 389.425 122.873C426.514 85.7897 437.296 36.4341 413.501 12.6419ZM266.548 146.573C253.776 159.342 223.935 150.211 199.896 126.174C175.857 102.132 166.723 72.2908 179.492 59.5217C192.266 46.7498 222.108 55.881 246.147 79.9259C255.354 89.1273 262.326 99.1791 266.767 108.802C266.133 118.921 267.66 128.302 271.584 136.234C270.778 140.26 269.257 143.861 266.548 146.573ZM346.217 126.174C322.178 150.211 292.336 159.342 279.564 146.573C276.856 143.861 275.334 140.26 274.529 136.234C278.456 128.302 279.98 118.921 279.345 108.802C283.786 99.1791 290.756 89.1273 299.966 79.9259C324.005 55.881 353.843 46.7498 366.618 59.5217C379.39 72.2908 370.256 102.132 346.217 126.174Z" fill="#0CB04A"/>
<path opacity="0.35" fill-rule="evenodd" clip-rule="evenodd" d="M366.694 97.6523C362.725 106.135 356.623 114.89 348.932 123.151H389.128C389.226 123.053 389.33 122.966 389.426 122.868C397.389 114.91 404.056 106.371 409.513 97.6523H366.694Z" fill="#060606"/>
<path opacity="0.35" fill-rule="evenodd" clip-rule="evenodd" d="M279.345 108.793C281.043 105.119 283.222 101.386 285.641 97.6523H260.474C262.893 101.386 265.072 105.119 266.767 108.793C266.455 113.79 266.677 118.598 267.446 123.151H278.666C279.435 118.598 279.66 113.79 279.345 108.793Z" fill="#060606"/>
<path opacity="0.35" fill-rule="evenodd" clip-rule="evenodd" d="M183.387 106.141L143.637 107.847C149.091 116.563 148.726 114.915 156.687 122.873C156.782 122.971 156.886 123.058 156.985 123.157H197.184C189.49 114.896 187.354 114.623 183.387 106.141Z" fill="#060606"/>
<path fill-rule="evenodd" clip-rule="evenodd" d="M546.112 269.778H0V123.156H546.112V269.778Z" fill="#FF3A2F"/>
<path opacity="0.35" fill-rule="evenodd" clip-rule="evenodd" d="M490.831 341.635L54.5996 291.788V269.781H490.831V341.635Z" fill="#060606"/>
</svg>
