<svg width="597" height="500" viewBox="0 0 597 500" fill="none" xmlns="http://www.w3.org/2000/svg">
<path d="M298.5 240.625C298.5 240.625 282.642 157.031 282.642 150.781C282.642 144.531 290.105 140.625 298.5 140.625C306.895 140.625 314.358 145.312 314.358 151.562C314.358 157.812 298.5 240.625 298.5 240.625ZM298.5 260.156C298.5 260.156 314.358 343.75 314.358 350C314.358 355.469 306.895 360.938 298.5 360.938C290.105 360.938 282.642 356.25 282.642 350C282.642 343.75 298.5 260.156 298.5 260.156ZM286.373 250C286.373 250 186.562 263.281 179.1 263.281C172.57 263.281 166.041 257.031 166.041 250C166.041 242.969 171.637 236.719 179.1 236.719C186.562 236.719 286.373 250 286.373 250ZM310.626 250C310.626 250 410.437 236.719 417.9 236.719C424.43 236.719 430.959 242.969 430.959 250C430.959 257.031 425.362 263.281 417.9 263.281C410.437 263.281 310.626 250 310.626 250ZM290.105 242.969C290.105 242.969 208.017 192.969 203.353 189.063C198.689 185.156 199.622 177.344 206.151 171.875C212.681 166.406 221.076 165.625 226.673 169.531C230.405 175 290.105 242.969 290.105 242.969ZM306.895 257.031C306.895 257.031 388.983 307.031 393.647 310.938C398.311 314.844 397.378 322.656 390.848 328.125C384.319 333.594 375.923 334.375 370.326 330.469C366.595 325.781 306.895 257.031 306.895 257.031ZM290.105 257.031C290.105 257.031 230.405 325.781 225.741 329.688C221.076 333.594 211.748 332.813 205.219 327.344C198.689 321.875 197.756 314.844 202.42 310.156C208.017 307.031 290.105 257.031 290.105 257.031ZM306.895 242.969C306.895 242.969 366.595 174.219 371.259 170.312C375.923 166.406 385.251 167.188 391.781 172.656C398.311 178.125 399.244 185.156 394.58 189.844C388.983 193.75 306.895 242.969 306.895 242.969Z" fill="#6ADBC6"/>
<path d="M291.037 233.594C291.037 233.594 208.95 98.4379 204.286 89.0629C199.622 79.6879 202.42 69.5317 210.816 66.4067C219.211 63.2817 229.472 69.5317 234.136 78.9067C238.8 88.2817 291.037 233.594 291.037 233.594ZM305.962 266.407C305.962 266.407 388.05 401.563 392.714 410.938C397.378 420.313 394.58 430.469 386.184 433.594C377.789 436.719 367.528 430.469 362.864 421.094C358.2 411.719 305.962 266.407 305.962 266.407ZM278.911 257.032C278.911 257.032 117.534 325.782 106.341 329.688C95.1468 333.594 83.0202 331.25 79.289 324.219C75.5577 317.188 83.0202 308.594 94.214 304.688C106.341 300.782 278.911 257.032 278.911 257.032ZM318.089 243.75C318.089 243.75 479.466 175 490.659 171.094C501.853 167.188 513.98 169.532 517.711 176.563C521.442 183.594 513.98 192.188 502.786 196.094L318.089 243.75ZM278.911 242.969C278.911 242.969 107.273 196.094 95.1468 192.188C83.0202 188.282 77.4233 179.688 81.1546 172.657C84.8858 165.625 97.0124 164.063 108.206 167.969C119.4 171.875 278.911 242.969 278.911 242.969ZM318.089 257.032C318.089 257.032 489.726 303.907 501.853 307.813C513.047 311.719 519.577 321.094 516.778 327.344C513.047 334.375 500.92 335.938 489.726 332.032C477.6 328.125 318.089 257.032 318.089 257.032ZM290.105 266.407C290.105 266.407 234.136 410.157 229.472 420.313C224.808 429.688 213.614 435.157 206.151 432.813C197.756 429.688 195.891 419.532 200.555 410.157C205.219 400 290.105 266.407 290.105 266.407ZM306.895 234.375C306.895 234.375 362.864 90.6254 367.528 80.4692C372.192 70.3129 382.453 64.8442 390.848 67.9692C399.244 71.0942 401.109 81.2504 396.445 90.6254C391.781 100.782 306.895 234.375 306.895 234.375Z" fill="#FFCE31"/>
<path d="M298.5 367.969C298.5 367.969 314.358 465.625 314.358 472.656C314.358 479.688 306.895 485.156 298.5 485.156C290.105 485.156 282.642 479.688 282.642 472.656C282.642 465.625 298.5 367.969 298.5 367.969ZM298.5 125C298.5 125 282.642 33.5938 282.642 27.3438C282.642 21.0938 289.172 15.625 298.5 15.625C307.828 15.625 314.358 21.0938 314.358 27.3438C314.358 33.5938 298.5 125 298.5 125ZM398.311 333.594C398.311 333.594 491.592 392.969 498.122 397.656C503.719 402.344 503.719 410.938 497.189 415.625C490.659 420.312 481.331 421.094 475.734 416.406C469.205 411.719 398.311 333.594 398.311 333.594ZM193.092 161.719C193.092 161.719 104.475 107.031 99.8109 102.344C94.2141 97.6562 95.1469 89.8438 101.677 84.375C108.206 78.9062 117.534 78.9063 123.131 82.8125C126.862 87.5 193.092 161.719 193.092 161.719ZM398.311 166.406C398.311 166.406 469.205 88.2812 474.802 82.8125C480.398 78.125 490.659 78.125 496.256 83.5938C502.786 89.0625 502.786 96.875 497.189 101.562C491.592 107.031 398.311 166.406 398.311 166.406ZM193.092 338.281C193.092 338.281 127.795 412.5 122.198 416.406C116.602 421.094 107.273 420.312 100.744 414.844C94.2141 409.375 93.2812 402.344 98.8781 398.438C104.475 393.75 193.092 338.281 193.092 338.281ZM439.355 250C439.355 250 555.956 236.719 564.352 236.719C572.747 236.719 578.344 242.188 578.344 250C578.344 257.031 571.814 263.281 563.419 263.281C555.956 263.281 439.355 250 439.355 250ZM149.25 250C149.25 250 40.1109 263.281 32.6484 263.281C25.1859 263.281 18.6562 257.812 18.6562 250C18.6562 242.188 25.1859 236.719 32.6484 236.719C40.1109 236.719 149.25 250 149.25 250Z" fill="#42ADE2"/>
<path d="M193.092 53.9063C202.365 53.9063 209.883 47.6103 209.883 39.8438C209.883 32.0772 202.365 25.7812 193.092 25.7812C183.819 25.7812 176.302 32.0772 176.302 39.8438C176.302 47.6103 183.819 53.9063 193.092 53.9063Z" fill="#42ADE2"/>
<path d="M405.774 53.9063C415.047 53.9063 422.564 47.6103 422.564 39.8438C422.564 32.0772 415.047 25.7812 405.774 25.7812C396.5 25.7812 388.983 32.0772 388.983 39.8438C388.983 47.6103 396.5 53.9063 405.774 53.9063Z" fill="#42ADE2"/>
<path d="M188.428 475C197.701 475 205.219 468.704 205.219 460.937C205.219 453.171 197.701 446.875 188.428 446.875C179.155 446.875 171.637 453.171 171.637 460.937C171.637 468.704 179.155 475 188.428 475Z" fill="#42ADE2"/>
<path d="M401.109 475C410.383 475 417.9 468.704 417.9 460.937C417.9 453.171 410.383 446.875 401.109 446.875C391.836 446.875 384.319 453.171 384.319 460.937C384.319 468.704 391.836 475 401.109 475Z" fill="#42ADE2"/>
<path d="M45.7079 351.562C54.9811 351.562 62.4985 345.266 62.4985 337.5C62.4985 329.733 54.9811 323.438 45.7079 323.438C36.4347 323.438 28.9172 329.733 28.9172 337.5C28.9172 345.266 36.4347 351.562 45.7079 351.562Z" fill="#42ADE2"/>
<path d="M45.7079 173.438C54.9811 173.438 62.4985 167.141 62.4985 159.375C62.4985 151.608 54.9811 145.312 45.7079 145.312C36.4347 145.312 28.9172 151.608 28.9172 159.375C28.9172 167.141 36.4347 173.438 45.7079 173.438Z" fill="#42ADE2"/>
<path d="M548.494 355.469C557.767 355.469 565.284 349.173 565.284 341.406C565.284 333.64 557.767 327.344 548.494 327.344C539.221 327.344 531.703 333.64 531.703 341.406C531.703 349.173 539.221 355.469 548.494 355.469Z" fill="#42ADE2"/>
<path d="M548.494 177.344C557.767 177.344 565.284 171.048 565.284 163.281C565.284 155.515 557.767 149.219 548.494 149.219C539.221 149.219 531.703 155.515 531.703 163.281C531.703 171.048 539.221 177.344 548.494 177.344Z" fill="#42ADE2"/>
</svg>
