<svg width="514" height="486" viewBox="0 0 514 486" fill="none" xmlns="http://www.w3.org/2000/svg">
<path d="M277.963 485.998C401.62 485.998 501.863 386.343 501.863 263.411C501.863 140.48 401.62 40.8242 277.963 40.8242C154.307 40.8242 54.0635 140.48 54.0635 263.411C54.0635 386.343 154.307 485.998 277.963 485.998Z" fill="url(#paint0_radial_943_887)"/>
<path opacity="0.5" d="M277.963 485.998C401.62 485.998 501.863 386.343 501.863 263.411C501.863 140.48 401.62 40.8242 277.963 40.8242C154.307 40.8242 54.0635 140.48 54.0635 263.411C54.0635 386.343 154.307 485.998 277.963 485.998Z" fill="url(#paint1_radial_943_887)"/>
<path d="M229.127 182.174C230.387 173.27 221.43 166.454 204.918 164.367C190.784 162.559 159.019 166.037 133.97 190.382C129.352 194.833 135.09 198.451 139.288 195.668C153.841 186.347 190.784 176.888 217.652 183.426C228.568 186.208 229.127 182.174 229.127 182.174Z" fill="url(#paint2_linear_943_887)"/>
<path d="M326.802 182.174C325.542 173.27 334.498 166.454 351.01 164.367C365.144 162.559 396.911 166.037 421.959 190.382C426.577 194.833 420.84 198.451 416.642 195.668C402.088 186.347 365.144 176.888 338.276 183.426C327.221 186.208 326.802 182.174 326.802 182.174Z" fill="url(#paint3_linear_943_887)"/>
<path d="M277.963 485.998C401.62 485.998 501.863 386.343 501.863 263.411C501.863 140.48 401.62 40.8242 277.963 40.8242C154.307 40.8242 54.0635 140.48 54.0635 263.411C54.0635 386.343 154.307 485.998 277.963 485.998Z" fill="url(#paint4_radial_943_887)"/>
<path opacity="0.5" d="M277.963 485.998C401.62 485.998 501.863 386.343 501.863 263.411C501.863 140.48 401.62 40.8242 277.963 40.8242C154.307 40.8242 54.0635 140.48 54.0635 263.411C54.0635 386.343 154.307 485.998 277.963 485.998Z" fill="url(#paint5_radial_943_887)"/>
<path opacity="0.75" d="M277.963 485.998C401.62 485.998 501.863 386.343 501.863 263.411C501.863 140.48 401.62 40.8242 277.963 40.8242C154.307 40.8242 54.0635 140.48 54.0635 263.411C54.0635 386.343 154.307 485.998 277.963 485.998Z" fill="url(#paint6_radial_943_887)"/>
<path opacity="0.4" d="M232.901 419.493C261.111 419.493 283.979 396.759 283.979 368.715C283.979 340.672 261.111 317.938 232.901 317.938C204.692 317.938 181.824 340.672 181.824 368.715C181.824 396.759 204.692 419.493 232.901 419.493Z" fill="url(#paint7_radial_943_887)"/>
<path d="M282.579 394.605C290.462 394.605 296.853 386.384 296.853 376.242C296.853 366.1 290.462 357.879 282.579 357.879C274.696 357.879 268.306 366.1 268.306 376.242C268.306 386.384 274.696 394.605 282.579 394.605Z" fill="url(#paint8_linear_943_887)"/>
<path d="M481.429 305.129C482.268 312.78 477.23 326.414 469.254 335.317C463.237 342.134 454.84 344.777 446.444 343.247C444.765 342.969 443.226 342.551 441.546 341.856C430.771 337.404 420.555 329.614 409.64 331.283L340.372 341.299C331.136 342.691 322.18 345.056 313.503 348.534L277.12 367.314L279.079 380.391L319.241 388.043C328.617 389.016 337.853 388.738 347.088 387.486L434.269 374.827L459.318 366.758L491.784 342.273C499.2 336.013 499.061 322.241 491.504 315.145L481.429 305.129Z" fill="url(#paint9_linear_943_887)"/>
<path d="M335.056 342.27C327.78 343.66 320.643 345.747 313.647 348.668L277.263 367.45L279.221 380.527L319.384 388.178C326.8 388.873 334.357 388.873 341.634 388.178C337.995 387.482 333.797 378.022 332.118 366.198C330.439 354.094 331.698 343.938 335.056 342.27Z" fill="url(#paint10_linear_943_887)"/>
<path d="M481.429 305.129C482.268 312.78 477.23 326.414 469.254 335.317C463.237 342.134 454.84 344.777 446.444 343.247C444.765 342.969 443.226 342.551 441.546 341.856C430.771 337.404 420.555 329.614 409.64 331.283L340.372 341.299C331.136 342.691 322.18 345.056 313.503 348.534L277.12 367.314L279.079 380.391L319.241 388.043C328.617 389.016 337.853 388.738 347.088 387.486L429.792 375.522L454.141 370.514L491.644 342.412C499.061 336.152 498.92 322.379 491.364 315.285L481.429 305.129Z" fill="url(#paint11_linear_943_887)"/>
<path d="M429.933 375.536C476.532 368.858 522.571 357.172 512.636 296.239C505.499 252 437.769 247.965 433.991 278.988C438.889 273.702 446.025 262.99 451.203 262.851C475.412 262.016 482.829 289.701 483.249 304.586C484.089 341.87 453.022 372.197 429.933 375.536Z" fill="url(#paint12_linear_943_887)"/>
<path d="M473.452 284.828C479.89 286.914 481.569 297.07 481.429 305C481.429 305 483.248 309.591 481.988 311.538L482.969 309.73C482.969 309.591 483.108 304.582 483.108 304.443C482.689 289.558 474.992 261.595 451.063 262.708C429.233 263.821 430.912 295.261 436.929 304.025L440.288 309.451L466.176 304.721C462.817 287.749 468.275 283.158 473.452 284.828Z" fill="url(#paint13_linear_943_887)"/>
<path d="M433.291 290.805C434.41 299.569 438.048 307.916 441.827 307.36C445.605 306.803 447.144 298.317 446.445 293.309L479.05 298.178C479.75 302.769 478.35 310.56 474.852 311.116L442.247 310.56C434.69 310.421 433.291 294.7 433.291 290.805Z" fill="url(#paint14_linear_943_887)"/>
<path d="M282.862 375.681C278.524 408.234 252.076 415.328 257.393 406.007C264.39 393.348 266.069 385.001 267.609 373.733C269.148 362.464 269.708 353.978 266.349 339.927C263.69 329.494 287.199 343.127 282.862 375.681Z" fill="#643800"/>
<path d="M266.206 339.932C269.705 353.982 269.005 362.469 267.466 373.737C265.927 385.005 264.247 393.352 257.25 406.012C255.431 409.351 257.39 410.603 261.028 409.49C260.889 409.49 257.39 408.516 260.609 404.204C265.506 397.804 273.063 388.344 274.882 374.85C276.701 361.216 271.943 350.226 268.865 342.714C267.046 337.706 270.684 337.706 270.684 337.706C267.605 335.619 265.367 336.314 266.206 339.932Z" fill="url(#paint15_linear_943_887)"/>
<path opacity="0.75" d="M481.429 305.129C482.268 312.78 477.23 326.414 469.254 335.317C463.237 342.134 454.84 344.777 446.444 343.247C444.765 342.969 443.226 342.551 441.546 341.856C430.771 337.404 420.555 329.614 409.64 331.283L340.372 341.299C331.136 342.691 322.18 345.056 313.503 348.534L277.12 367.314L279.079 380.391L319.241 388.043C328.617 389.016 337.853 388.738 347.088 387.486L429.792 375.522L454.141 370.514L491.644 342.412C499.061 336.152 498.92 322.379 491.364 315.285L481.429 305.129Z" fill="url(#paint16_radial_943_887)"/>
<path opacity="0.75" d="M429.933 375.536C476.532 368.858 522.571 357.172 512.636 296.239C505.499 252 437.769 247.965 433.991 278.988C438.889 273.702 446.025 262.99 451.203 262.851C475.412 262.016 482.829 289.701 483.249 304.586C484.089 341.87 453.022 372.197 429.933 375.536Z" fill="url(#paint17_radial_943_887)"/>
<path d="M176.787 81.4396C178.887 80.466 179.026 77.5446 176.927 76.4315L156.357 65.7193L33.2115 2.14308C30.6927 0.891015 20.6172 -3.56069 9.28227 5.89927C-2.75238 16.333 0.046423 24.2626 0.886005 26.7668L64.8371 191.342C66.2367 195.098 71.5542 194.959 72.9538 191.203C88.6265 146.963 152.018 92.8471 176.787 81.4396Z" fill="url(#paint18_linear_943_887)"/>
<path d="M156.497 65.727L131.028 52.6499C121.792 48.4766 44.2668 106.766 46.226 142.937L61.0593 181.055C43.2873 135.702 144.042 59.3276 156.497 65.727Z" fill="url(#paint19_linear_943_887)"/>
<path d="M105.141 39.4176L99.4035 36.357L79.6725 26.2016C71.4162 25.506 25.2367 60.7028 23.4175 84.4914L35.732 115.932C32.9332 82.9613 96.7448 34.9659 105.141 39.4176Z" fill="url(#paint20_linear_943_887)"/>
<path d="M34.75 3.10938C27.4733 5.75256 8.58178 20.0816 3.26416 32.6021L16.1384 65.8511C8.30187 45.5397 49.1635 14.9343 57.8399 14.9343L34.75 3.10938Z" fill="url(#paint21_linear_943_887)"/>
<path opacity="0.75" d="M176.787 81.4396C178.887 80.466 179.026 77.5446 176.927 76.4315L156.357 65.7193L33.2115 2.14308C30.6927 0.891015 20.6172 -3.56069 9.28227 5.89927C-2.75238 16.333 0.046423 24.2626 0.886005 26.7668L64.8371 191.342C66.2367 195.098 71.5542 194.959 72.9538 191.203C88.6265 146.963 152.018 92.8471 176.787 81.4396Z" fill="url(#paint22_radial_943_887)"/>
<path opacity="0.75" d="M176.787 81.4396C178.887 80.466 179.026 77.5446 176.927 76.4315L156.357 65.7193L33.2115 2.14308C30.6927 0.891015 20.6172 -3.56069 9.28227 5.89927C-2.75238 16.333 0.046423 24.2626 0.886005 26.7668L64.8371 191.342C66.2367 195.098 71.5542 194.959 72.9538 191.203C88.6265 146.963 152.018 92.8471 176.787 81.4396Z" fill="url(#paint23_radial_943_887)"/>
<path opacity="0.75" d="M176.787 81.4396C178.887 80.466 179.026 77.5446 176.927 76.4315L156.357 65.7193L33.2115 2.14308C30.6927 0.891015 20.6172 -3.56069 9.28227 5.89927C-2.75238 16.333 0.046423 24.2626 0.886005 26.7668L64.8371 191.342C66.2367 195.098 71.5542 194.959 72.9538 191.203C88.6265 146.963 152.018 92.8471 176.787 81.4396Z" fill="url(#paint24_radial_943_887)"/>
<path d="M217.371 227.506C201.838 217.908 181.827 219.02 167.273 229.872C159.857 235.437 152.58 243.923 148.242 257.139C147.542 259.364 146.982 261.73 146.843 264.095C146.563 268.824 149.921 273.137 155.239 268.128C196.66 229.315 225.628 269.241 225.628 269.241C231.225 273.276 236.963 264.929 235.843 257.139C235.563 254.912 235.283 252.547 234.584 250.461C231.365 239.192 224.508 232.097 217.371 227.506Z" fill="url(#paint25_radial_943_887)"/>
<path d="M234.582 250.462C233.042 245.732 231.083 241.837 228.984 238.498C225.626 233.768 221.568 230.29 217.37 227.647C201.837 218.048 181.826 219.161 167.272 230.012C159.855 235.577 152.578 244.063 148.24 257.279C147.821 258.531 147.541 259.923 147.261 261.313V261.453C165.453 233.212 191.76 231.265 191.76 231.265C191.76 231.265 217.789 229.039 235.421 254.358C235.141 252.967 235.002 251.715 234.582 250.462Z" fill="url(#paint26_linear_943_887)"/>
<path d="M338.556 227.506C354.089 217.908 374.1 219.02 388.654 229.872C396.071 235.437 403.347 243.923 407.686 257.139C408.385 259.364 408.945 261.73 409.085 264.095C409.364 268.824 406.006 273.137 400.689 268.128C359.267 229.315 330.3 269.241 330.3 269.241C324.702 273.276 318.965 264.929 320.085 257.139C320.365 254.912 320.644 252.547 321.344 250.461C324.423 239.192 331.28 232.097 338.556 227.506Z" fill="url(#paint27_radial_943_887)"/>
<path d="M321.203 250.462C322.743 245.732 324.702 241.837 326.801 238.498C330.16 233.768 334.217 230.29 338.416 227.647C353.949 218.048 373.96 219.161 388.513 230.012C395.93 235.577 403.207 244.063 407.545 257.279C407.964 258.531 408.244 259.923 408.524 261.313V261.453C390.332 233.212 364.025 231.265 364.025 231.265C364.025 231.265 337.996 229.039 320.364 254.358C320.644 252.967 320.924 251.575 321.203 250.462Z" fill="url(#paint28_linear_943_887)"/>
<path d="M330.3 388.615C326.802 387.641 323.164 378.599 321.484 367.47C319.945 356.897 320.925 347.715 323.583 345.211C320.225 346.185 316.866 347.436 313.648 348.689L313.228 348.828C311.129 351.889 310.01 359.54 311.269 368.721C312.528 377.625 315.887 384.998 318.685 387.92L319.385 388.058C323.023 388.476 326.662 388.615 330.3 388.615Z" fill="url(#paint29_linear_943_887)"/>
<g opacity="0.25">
<path opacity="0.25" d="M99.9607 204.016C107.238 224.884 88.9054 230.309 94.9231 243.804L115.354 238.517C109.337 225.023 125.289 219.876 118.852 198.312L99.9607 204.016Z" fill="url(#paint30_radial_943_887)"/>
<path opacity="0.25" d="M445.745 136.549C417.757 152.269 410.621 119.855 391.729 127.089L397.607 155.051C416.359 147.956 424.335 178.284 452.322 162.563L445.745 136.549Z" fill="url(#paint31_radial_943_887)"/>
<path opacity="0.25" d="M218.207 104.247C221.376 104.247 223.945 101.694 223.945 98.544C223.945 95.3939 221.376 92.8398 218.207 92.8398C215.039 92.8398 212.47 95.3939 212.47 98.544C212.47 101.694 215.039 104.247 218.207 104.247Z" fill="url(#paint32_radial_943_887)"/>
<path opacity="0.25" d="M365.422 101.763C368.59 101.763 371.159 99.2097 371.159 96.0596C371.159 92.9096 368.59 90.3555 365.422 90.3555C362.253 90.3555 359.685 92.9096 359.685 96.0596C359.685 99.2097 362.253 101.763 365.422 101.763Z" fill="url(#paint33_radial_943_887)"/>
<path opacity="0.25" d="M468.975 238.65C472.144 238.65 474.713 236.096 474.713 232.946C474.713 229.796 472.144 227.242 468.975 227.242C465.806 227.242 463.238 229.796 463.238 232.946C463.238 236.096 465.806 238.65 468.975 238.65Z" fill="url(#paint34_radial_943_887)"/>
<path opacity="0.25" d="M109.897 321.017C113.066 321.017 115.635 318.463 115.635 315.313C115.635 312.163 113.066 309.609 109.897 309.609C106.729 309.609 104.16 312.163 104.16 315.313C104.16 318.463 106.729 321.017 109.897 321.017Z" fill="url(#paint35_radial_943_887)"/>
<path opacity="0.25" d="M382.634 438.556C385.802 438.556 388.372 436.003 388.372 432.853C388.372 429.703 385.802 427.148 382.634 427.148C379.465 427.148 376.896 429.703 376.896 432.853C376.896 436.003 379.465 438.556 382.634 438.556Z" fill="url(#paint36_radial_943_887)"/>
<path opacity="0.25" d="M365.141 299.732C368.31 299.732 370.879 297.178 370.879 294.028C370.879 290.878 368.31 288.324 365.141 288.324C361.973 288.324 359.404 290.878 359.404 294.028C359.404 297.178 361.973 299.732 365.141 299.732Z" fill="url(#paint37_radial_943_887)"/>
<path opacity="0.25" d="M307.908 107.181C307.348 98.1379 306.508 88.6782 305.389 78.8008C270.125 100.781 256.69 127.492 256.69 127.492L267.186 150.029C278.241 129.161 296.573 114.693 307.908 107.181Z" fill="url(#paint38_radial_943_887)"/>
</g>
<path d="M96.8819 191.747C104.159 212.614 85.8273 218.04 91.8442 231.534L112.275 226.248C106.258 212.754 122.211 207.606 115.774 186.043L96.8819 191.747Z" fill="url(#paint39_linear_943_887)"/>
<path d="M445.748 125.275C417.76 140.996 410.624 108.581 391.732 115.816L397.61 143.778C416.362 136.683 424.338 167.01 452.325 151.29L445.748 125.275Z" fill="url(#paint40_linear_943_887)"/>
<path d="M456.103 93.4044C459.272 93.4044 461.841 90.8503 461.841 87.7002C461.841 84.5502 459.272 81.9961 456.103 81.9961C452.935 81.9961 450.366 84.5502 450.366 87.7002C450.366 90.8503 452.935 93.4044 456.103 93.4044Z" fill="url(#paint41_linear_943_887)"/>
<path d="M218.208 95.9154C221.377 95.9154 223.945 93.3613 223.945 90.2112C223.945 87.0612 221.377 84.5078 218.208 84.5078C215.039 84.5078 212.47 87.0612 212.47 90.2112C212.47 93.3613 215.039 95.9154 218.208 95.9154Z" fill="url(#paint42_linear_943_887)"/>
<path d="M365.422 93.4044C368.591 93.4044 371.159 90.8503 371.159 87.7002C371.159 84.5502 368.591 81.9961 365.422 81.9961C362.253 81.9961 359.684 84.5502 359.684 87.7002C359.684 90.8503 362.253 93.4044 365.422 93.4044Z" fill="url(#paint43_linear_943_887)"/>
<path d="M468.975 230.286C472.144 230.286 474.712 227.732 474.712 224.582C474.712 221.432 472.144 218.879 468.975 218.879C465.806 218.879 463.237 221.432 463.237 224.582C463.237 227.732 465.806 230.286 468.975 230.286Z" fill="url(#paint44_linear_943_887)"/>
<path d="M108.638 314.451C111.807 314.451 114.375 311.897 114.375 308.747C114.375 305.597 111.807 303.043 108.638 303.043C105.47 303.043 102.9 305.597 102.9 308.747C102.9 311.897 105.47 314.451 108.638 314.451Z" fill="url(#paint45_linear_943_887)"/>
<path d="M364.442 291.911C367.611 291.911 370.179 289.357 370.179 286.207C370.179 283.057 367.611 280.504 364.442 280.504C361.274 280.504 358.705 283.057 358.705 286.207C358.705 289.357 361.274 291.911 364.442 291.911Z" fill="url(#paint46_linear_943_887)"/>
<path d="M63.1584 395.99C66.3278 395.99 68.8962 393.436 68.8962 390.286C68.8962 387.136 66.3278 384.582 63.1584 384.582C59.9898 384.582 57.4214 387.136 57.4214 390.286C57.4214 393.436 59.9898 395.99 63.1584 395.99Z" fill="url(#paint47_linear_943_887)"/>
<path d="M310.848 87.2938C310.288 78.2512 309.449 68.7915 308.33 58.9141C273.066 80.8951 259.631 107.605 259.631 107.605L270.127 130.142C281.181 109.414 299.514 94.8063 310.848 87.2938Z" fill="url(#paint48_linear_943_887)"/>
<path d="M200.299 355.501C203.517 417.27 152.72 433.268 137.467 436.745C145.444 443.145 153.839 448.988 162.796 454.274C190.503 442.728 236.123 413.652 220.73 349.52C213.173 351.467 206.316 353.415 200.299 355.501Z" fill="url(#paint49_radial_943_887)"/>
<path d="M185.743 344.921C189.522 417.54 118.573 427 118.573 427L128.509 450.233C128.509 450.233 227.725 429.226 206.174 339.078C198.618 340.887 191.76 342.834 185.743 344.921Z" fill="url(#paint50_linear_943_887)"/>
<defs>
<radialGradient id="paint0_radial_943_887" cx="0" cy="0" r="1" gradientUnits="userSpaceOnUse" gradientTransform="translate(233.856 173.174) scale(270.106 268.523)">
<stop stop-color="#FFE030"/>
<stop offset="1" stop-color="#FFB92E"/>
</radialGradient>
<radialGradient id="paint1_radial_943_887" cx="0" cy="0" r="1" gradientUnits="userSpaceOnUse" gradientTransform="translate(233.856 173.174) scale(212.504 211.258)">
<stop stop-color="#FFEA5F"/>
<stop offset="1" stop-color="#FFBC47" stop-opacity="0"/>
</radialGradient>
<linearGradient id="paint2_linear_943_887" x1="180.263" y1="190.718" x2="183.365" y2="167.468" gradientUnits="userSpaceOnUse">
<stop offset="0.00132565" stop-color="#3C2200"/>
<stop offset="1" stop-color="#7A4400"/>
</linearGradient>
<linearGradient id="paint3_linear_943_887" x1="375.589" y1="190.712" x2="372.487" y2="167.461" gradientUnits="userSpaceOnUse">
<stop offset="0.00132565" stop-color="#3C2200"/>
<stop offset="1" stop-color="#7A4400"/>
</linearGradient>
<radialGradient id="paint4_radial_943_887" cx="0" cy="0" r="1" gradientUnits="userSpaceOnUse" gradientTransform="translate(109.783 119.384) rotate(-45.3664) scale(171.284 70.3756)">
<stop stop-color="#EB672A" stop-opacity="0.5"/>
<stop offset="0.3025" stop-color="#E36521" stop-opacity="0.3422"/>
<stop offset="0.7868" stop-color="#CC600A" stop-opacity="0.089705"/>
<stop offset="0.9589" stop-color="#C25E00" stop-opacity="0"/>
</radialGradient>
<radialGradient id="paint5_radial_943_887" cx="0" cy="0" r="1" gradientUnits="userSpaceOnUse" gradientTransform="translate(155.835 318.756) rotate(-2.75408) scale(94.1762 74.0818)">
<stop stop-color="#FF4C00"/>
<stop offset="0.1995" stop-color="#F94C0E" stop-opacity="0.8005"/>
<stop offset="0.7145" stop-color="#EC4A2E" stop-opacity="0.2855"/>
<stop offset="1" stop-color="#E74A3A" stop-opacity="0"/>
</radialGradient>
<radialGradient id="paint6_radial_943_887" cx="0" cy="0" r="1" gradientUnits="userSpaceOnUse" gradientTransform="translate(397.823 387.511) rotate(-0.399236) scale(149.74 33.7917)">
<stop stop-color="#7A4400" stop-opacity="0.5"/>
<stop offset="0.5833" stop-color="#894D00" stop-opacity="0.2069"/>
<stop offset="0.995" stop-color="#975500" stop-opacity="0"/>
</radialGradient>
<radialGradient id="paint7_radial_943_887" cx="0" cy="0" r="1" gradientUnits="userSpaceOnUse" gradientTransform="translate(249.117 378.341) rotate(4.52737) scale(52.8724 37.1676)">
<stop stop-color="white" stop-opacity="0.75"/>
<stop offset="1" stop-color="white" stop-opacity="0"/>
</radialGradient>
<linearGradient id="paint8_linear_943_887" x1="268.226" y1="376.193" x2="296.829" y2="376.193" gradientUnits="userSpaceOnUse">
<stop offset="0.00132565" stop-color="#3C2200"/>
<stop offset="1" stop-color="#512D00"/>
</linearGradient>
<linearGradient id="paint9_linear_943_887" x1="387.206" y1="347.715" x2="396.951" y2="414.985" gradientUnits="userSpaceOnUse">
<stop stop-color="#FF40BF"/>
<stop offset="0.8932" stop-color="#7000A3"/>
</linearGradient>
<linearGradient id="paint10_linear_943_887" x1="304.091" y1="341.228" x2="310.772" y2="387.348" gradientUnits="userSpaceOnUse">
<stop offset="0.2544" stop-color="#D1F2FF"/>
<stop offset="1" stop-color="#17BBFE"/>
</linearGradient>
<linearGradient id="paint11_linear_943_887" x1="404.259" y1="350.874" x2="510.588" y2="304.969" gradientUnits="userSpaceOnUse">
<stop stop-color="#7000A3" stop-opacity="0"/>
<stop offset="0.2242" stop-color="#530078" stop-opacity="0.2242"/>
<stop offset="0.5925" stop-color="#260038" stop-opacity="0.5925"/>
<stop offset="0.8613" stop-color="#0B000F" stop-opacity="0.8613"/>
<stop offset="1"/>
</linearGradient>
<linearGradient id="paint12_linear_943_887" x1="495.905" y1="421.626" x2="463.934" y2="308.73" gradientUnits="userSpaceOnUse">
<stop/>
<stop offset="0.1488" stop-color="#27002D"/>
<stop offset="0.4631" stop-color="#760086"/>
<stop offset="0.7193" stop-color="#B000C7"/>
<stop offset="0.9045" stop-color="#D300F0"/>
<stop offset="1" stop-color="#E100FF"/>
</linearGradient>
<linearGradient id="paint13_linear_943_887" x1="463.244" y1="246.064" x2="452.766" y2="349.719" gradientUnits="userSpaceOnUse">
<stop/>
<stop offset="0.1488" stop-color="#27002D"/>
<stop offset="0.4631" stop-color="#760086"/>
<stop offset="0.7193" stop-color="#B000C7"/>
<stop offset="0.9045" stop-color="#D300F0"/>
<stop offset="1" stop-color="#E100FF"/>
</linearGradient>
<linearGradient id="paint14_linear_943_887" x1="460.823" y1="327.942" x2="456.417" y2="297.528" gradientUnits="userSpaceOnUse">
<stop stop-color="#7000A3"/>
<stop offset="0.4469" stop-color="#A900D2"/>
<stop offset="0.8117" stop-color="#D200F2"/>
<stop offset="1" stop-color="#E100FF"/>
</linearGradient>
<linearGradient id="paint15_linear_943_887" x1="250.243" y1="371.434" x2="274.153" y2="374.648" gradientUnits="userSpaceOnUse">
<stop offset="0.00132565" stop-color="#3C2200"/>
<stop offset="1" stop-color="#512D00"/>
</linearGradient>
<radialGradient id="paint16_radial_943_887" cx="0" cy="0" r="1" gradientUnits="userSpaceOnUse" gradientTransform="translate(371.102 351.595) rotate(-8.239) scale(80.9634 8.97813)">
<stop stop-color="white" stop-opacity="0.5"/>
<stop offset="1" stop-color="white" stop-opacity="0"/>
</radialGradient>
<radialGradient id="paint17_radial_943_887" cx="0" cy="0" r="1" gradientUnits="userSpaceOnUse" gradientTransform="translate(498.775 289.487) rotate(77.6474) scale(40.5179 9.116)">
<stop stop-color="white" stop-opacity="0.5"/>
<stop offset="1" stop-color="white" stop-opacity="0"/>
</radialGradient>
<linearGradient id="paint18_linear_943_887" x1="143.085" y1="27.9681" x2="13.8764" y2="119.154" gradientUnits="userSpaceOnUse">
<stop offset="0.2544" stop-color="#D1F2FF"/>
<stop offset="1" stop-color="#17BBFE"/>
</linearGradient>
<linearGradient id="paint19_linear_943_887" x1="154.328" y1="63.571" x2="41.5661" y2="158.399" gradientUnits="userSpaceOnUse">
<stop stop-color="#FF40BF"/>
<stop offset="0.7456" stop-color="#7000A3"/>
</linearGradient>
<linearGradient id="paint20_linear_943_887" x1="99.571" y1="33.1326" x2="21.13" y2="99.0976" gradientUnits="userSpaceOnUse">
<stop stop-color="#FF40BF"/>
<stop offset="0.7456" stop-color="#7000A3"/>
</linearGradient>
<linearGradient id="paint21_linear_943_887" x1="53.1587" y1="9.82134" x2="3.69232" y2="51.4206" gradientUnits="userSpaceOnUse">
<stop stop-color="#FF40BF"/>
<stop offset="0.7456" stop-color="#7000A3"/>
</linearGradient>
<radialGradient id="paint22_radial_943_887" cx="0" cy="0" r="1" gradientUnits="userSpaceOnUse" gradientTransform="translate(44.2478 94.5336) rotate(65.174) scale(92.4644 22.8593)">
<stop stop-color="#440063" stop-opacity="0.75"/>
<stop offset="1" stop-color="#420061" stop-opacity="0"/>
</radialGradient>
<radialGradient id="paint23_radial_943_887" cx="0" cy="0" r="1" gradientUnits="userSpaceOnUse" gradientTransform="translate(84.9465 52.4989) rotate(31.0527) scale(92.7665 22.7875)">
<stop stop-color="white" stop-opacity="0.5"/>
<stop offset="1" stop-color="white" stop-opacity="0"/>
</radialGradient>
<radialGradient id="paint24_radial_943_887" cx="0" cy="0" r="1" gradientUnits="userSpaceOnUse" gradientTransform="translate(115.007 172.299) rotate(30.0541) scale(114.483 116.225)">
<stop stop-color="#440063" stop-opacity="0.75"/>
<stop offset="1" stop-color="#420061" stop-opacity="0"/>
</radialGradient>
<radialGradient id="paint25_radial_943_887" cx="0" cy="0" r="1" gradientUnits="userSpaceOnUse" gradientTransform="translate(191.86 247.168) rotate(175.5) scale(34.5414 24.3509)">
<stop offset="0.00132565" stop-color="#7A4400"/>
<stop offset="1" stop-color="#643800"/>
</radialGradient>
<linearGradient id="paint26_linear_943_887" x1="195.219" y1="203.949" x2="192.509" y2="241.329" gradientUnits="userSpaceOnUse">
<stop offset="0.00132565" stop-color="#3C2200"/>
<stop offset="1" stop-color="#512D00"/>
</linearGradient>
<radialGradient id="paint27_radial_943_887" cx="0" cy="0" r="1" gradientUnits="userSpaceOnUse" gradientTransform="translate(363.94 247.168) rotate(4.49915) scale(34.5414 24.3509)">
<stop offset="0.00132565" stop-color="#7A4400"/>
<stop offset="1" stop-color="#643800"/>
</radialGradient>
<linearGradient id="paint28_linear_943_887" x1="360.583" y1="203.949" x2="363.293" y2="241.328" gradientUnits="userSpaceOnUse">
<stop offset="0.00132565" stop-color="#3C2200"/>
<stop offset="1" stop-color="#512D00"/>
</linearGradient>
<linearGradient id="paint29_linear_943_887" x1="317.843" y1="356.574" x2="323.344" y2="398.866" gradientUnits="userSpaceOnUse">
<stop stop-color="#FF40BF"/>
<stop offset="0.8932" stop-color="#7000A3"/>
</linearGradient>
<radialGradient id="paint30_radial_943_887" cx="0" cy="0" r="1" gradientUnits="userSpaceOnUse" gradientTransform="translate(168.663 117.939) scale(504.068 501.113)">
<stop stop-color="#7A4400" stop-opacity="0.5"/>
<stop offset="0.5833" stop-color="#894D00" stop-opacity="0.2069"/>
<stop offset="0.995" stop-color="#975500" stop-opacity="0"/>
</radialGradient>
<radialGradient id="paint31_radial_943_887" cx="0" cy="0" r="1" gradientUnits="userSpaceOnUse" gradientTransform="translate(132.918 71.1182) rotate(0.0417467) scale(685.834 681.36)">
<stop stop-color="#7A4400" stop-opacity="0.5"/>
<stop offset="0.5833" stop-color="#894D00" stop-opacity="0.2069"/>
<stop offset="0.995" stop-color="#975500" stop-opacity="0"/>
</radialGradient>
<radialGradient id="paint32_radial_943_887" cx="0" cy="0" r="1" gradientUnits="userSpaceOnUse" gradientTransform="translate(192.453 96.8758) scale(504.069 501.113)">
<stop stop-color="#7A4400" stop-opacity="0.5"/>
<stop offset="0.5833" stop-color="#894D00" stop-opacity="0.2069"/>
<stop offset="0.995" stop-color="#975500" stop-opacity="0"/>
</radialGradient>
<radialGradient id="paint33_radial_943_887" cx="0" cy="0" r="1" gradientUnits="userSpaceOnUse" gradientTransform="translate(192.453 96.8952) scale(504.068 501.113)">
<stop stop-color="#7A4400" stop-opacity="0.5"/>
<stop offset="0.5833" stop-color="#894D00" stop-opacity="0.2069"/>
<stop offset="0.995" stop-color="#975500" stop-opacity="0"/>
</radialGradient>
<radialGradient id="paint34_radial_943_887" cx="0" cy="0" r="1" gradientUnits="userSpaceOnUse" gradientTransform="translate(192.452 96.8913) scale(504.07 501.113)">
<stop stop-color="#7A4400" stop-opacity="0.5"/>
<stop offset="0.5833" stop-color="#894D00" stop-opacity="0.2069"/>
<stop offset="0.995" stop-color="#975500" stop-opacity="0"/>
</radialGradient>
<radialGradient id="paint35_radial_943_887" cx="0" cy="0" r="1" gradientUnits="userSpaceOnUse" gradientTransform="translate(137.739 104.552) scale(504.069 501.114)">
<stop stop-color="#7A4400" stop-opacity="0.5"/>
<stop offset="0.5833" stop-color="#894D00" stop-opacity="0.2069"/>
<stop offset="0.995" stop-color="#975500" stop-opacity="0"/>
</radialGradient>
<radialGradient id="paint36_radial_943_887" cx="0" cy="0" r="1" gradientUnits="userSpaceOnUse" gradientTransform="translate(192.452 96.8867) scale(504.071 501.112)">
<stop stop-color="#7A4400" stop-opacity="0.5"/>
<stop offset="0.5833" stop-color="#894D00" stop-opacity="0.2069"/>
<stop offset="0.995" stop-color="#975500" stop-opacity="0"/>
</radialGradient>
<radialGradient id="paint37_radial_943_887" cx="0" cy="0" r="1" gradientUnits="userSpaceOnUse" gradientTransform="translate(210.644 74.2954) scale(504.069 501.112)">
<stop stop-color="#7A4400" stop-opacity="0.5"/>
<stop offset="0.5833" stop-color="#894D00" stop-opacity="0.2069"/>
<stop offset="0.995" stop-color="#975500" stop-opacity="0"/>
</radialGradient>
<radialGradient id="paint38_radial_943_887" cx="0" cy="0" r="1" gradientUnits="userSpaceOnUse" gradientTransform="translate(161.568 170.938) rotate(-28.4271) scale(696.764 693.961)">
<stop stop-color="#7A4400" stop-opacity="0.5"/>
<stop offset="0.5833" stop-color="#894D00" stop-opacity="0.2069"/>
<stop offset="0.995" stop-color="#975500" stop-opacity="0"/>
</radialGradient>
<linearGradient id="paint39_linear_943_887" x1="111.66" y1="221.718" x2="95.6845" y2="194.919" gradientUnits="userSpaceOnUse">
<stop stop-color="#FF9214"/>
<stop offset="1" stop-color="#FF4E0D"/>
</linearGradient>
<linearGradient id="paint40_linear_943_887" x1="486.51" y1="148.403" x2="393.038" y2="130.729" gradientUnits="userSpaceOnUse">
<stop stop-color="#80DAFE"/>
<stop offset="1" stop-color="#008EE6"/>
</linearGradient>
<linearGradient id="paint41_linear_943_887" x1="422.398" y1="81.3205" x2="488.774" y2="94.4726" gradientUnits="userSpaceOnUse">
<stop stop-color="#FFCB4B"/>
<stop offset="1" stop-color="#E81CA2"/>
</linearGradient>
<linearGradient id="paint42_linear_943_887" x1="251.7" y1="89.4896" x2="182.706" y2="91.1952" gradientUnits="userSpaceOnUse">
<stop stop-color="#FBE07A"/>
<stop offset="1" stop-color="#E81CA2"/>
</linearGradient>
<linearGradient id="paint43_linear_943_887" x1="363.141" y1="61.2465" x2="365.446" y2="89.0719" gradientUnits="userSpaceOnUse">
<stop stop-color="#80DAFE"/>
<stop offset="1" stop-color="#008EE6"/>
</linearGradient>
<linearGradient id="paint44_linear_943_887" x1="478.538" y1="234.964" x2="455.475" y2="209.789" gradientUnits="userSpaceOnUse">
<stop stop-color="#FFCB4B"/>
<stop offset="1" stop-color="#E81CA2"/>
</linearGradient>
<linearGradient id="paint45_linear_943_887" x1="96.9944" y1="306.793" x2="113.296" y2="309.877" gradientUnits="userSpaceOnUse">
<stop offset="0.2544" stop-color="#9F00E8"/>
<stop offset="1" stop-color="#7000A3"/>
</linearGradient>
<linearGradient id="paint46_linear_943_887" x1="346.102" y1="310.122" x2="377.123" y2="269.138" gradientUnits="userSpaceOnUse">
<stop stop-color="#80DAFE"/>
<stop offset="1" stop-color="#008EE6"/>
</linearGradient>
<linearGradient id="paint47_linear_943_887" x1="55.1191" y1="387.739" x2="92.4635" y2="401.189" gradientUnits="userSpaceOnUse">
<stop stop-color="#FF9214"/>
<stop offset="1" stop-color="#FF4E0D"/>
</linearGradient>
<linearGradient id="paint48_linear_943_887" x1="394.222" y1="22.0052" x2="245.873" y2="126.297" gradientUnits="userSpaceOnUse">
<stop stop-color="#FBE07A"/>
<stop offset="1" stop-color="#E81CA2"/>
</linearGradient>
<radialGradient id="paint49_radial_943_887" cx="0" cy="0" r="1" gradientUnits="userSpaceOnUse" gradientTransform="translate(42.8921 339.89) scale(238.063 236.667)">
<stop stop-color="#7A4400" stop-opacity="0.5"/>
<stop offset="0.5833" stop-color="#894D00" stop-opacity="0.2069"/>
<stop offset="0.995" stop-color="#975500" stop-opacity="0"/>
</radialGradient>
<linearGradient id="paint50_linear_943_887" x1="188.768" y1="300.621" x2="128.713" y2="545.245" gradientUnits="userSpaceOnUse">
<stop stop-color="#F78174"/>
<stop offset="0.3893" stop-color="#8800C7"/>
<stop offset="1" stop-color="#3640FF"/>
</linearGradient>
</defs>
</svg>
