<svg width="670" height="638" viewBox="0 0 670 638" fill="none" xmlns="http://www.w3.org/2000/svg">
<path d="M0 637.129L96.06 604.174L23.4565 571.219L0 637.129Z" fill="#F7B600"/>
<path d="M278.128 366.88L142.974 232.863L120.634 294.379L278.128 366.88Z" fill="#FFDD7D"/>
<path d="M120.635 294.41L96.0618 363.616L395.412 500.928L409.932 496.534L278.129 366.911L120.635 294.41Z" fill="#F7B600"/>
<path d="M72.603 432.819L295.998 534.979L395.409 500.926L96.0595 363.613L72.603 432.819Z" fill="#FFDD7D"/>
<path d="M48.0311 501.983L195.472 570.09L296 534.938L72.6046 432.777L48.0311 501.983Z" fill="#F7B600"/>
<path d="M48.0305 502.016L23.457 571.221L96.0605 604.176L195.471 570.123L48.0305 502.016Z" fill="#FFDD7D"/>
<path d="M333.977 309.774C408.815 382.275 447.909 463.564 421.102 489.928C393.177 516.292 310.521 478.943 234.566 405.344C159.729 332.843 120.635 251.554 147.442 225.19C175.367 198.826 258.023 237.273 333.977 309.774Z" fill="#493816"/>
<path d="M240.151 126.334C222.28 101.068 241.268 90.0834 265.842 94.4774C242.385 67.0149 256.906 47.2419 293.766 54.9314C304.936 57.1284 289.298 75.8029 279.245 75.8029C309.404 97.7729 292.649 121.94 260.257 116.447C289.298 154.895 240.151 145.008 217.812 147.205C212.227 175.766 245.736 208.721 234.566 208.721C209.993 208.721 169.782 117.546 240.151 126.334Z" fill="#42ADE2"/>
<path d="M474.715 179.085C457.96 186.774 411.047 114.273 469.13 113.175C435.62 83.5152 440.088 69.2347 484.767 68.1362C433.386 17.6053 514.926 0.0293159 522.745 26.3933C524.979 34.0828 498.171 19.8023 489.235 34.0828C479.182 50.5602 551.786 93.4017 476.949 90.1062C504.873 117.569 505.99 130.751 462.428 135.145C468.013 143.933 485.884 174.691 474.715 179.085Z" fill="#FF8736"/>
<path d="M493.704 350.447L510.459 336.167C510.459 336.167 526.096 359.235 537.266 368.023C546.202 328.477 543.968 305.409 589.764 331.773C564.073 263.666 606.519 288.931 647.847 307.606C645.613 290.03 647.847 292.227 665.718 286.734C681.356 344.955 638.911 327.379 605.402 308.704C625.507 361.432 604.285 358.137 561.839 340.561C560.722 362.531 554.021 387.796 540.617 389.993C524.979 394.387 493.704 350.447 493.704 350.447Z" fill="#ED4C5C"/>
<path d="M368.602 187.843C348.497 214.207 316.104 228.488 292.648 251.556C268.074 275.723 253.554 341.633 253.554 341.633C253.554 341.633 262.489 272.428 285.946 246.064C307.168 221.897 338.444 204.321 355.198 176.858C384.24 126.327 357.432 60.4174 319.455 21.97C327.274 15.379 338.444 6.59099 344.029 0C380.889 45.0384 412.164 131.82 368.602 187.843Z" fill="#C28FEF"/>
<path d="M403.23 243.857C374.188 264.728 352.966 295.486 332.86 324.047C314.989 349.313 258.023 381.169 258.023 381.169C258.023 381.169 311.638 344.919 328.392 318.555C348.498 285.6 368.604 251.546 399.879 227.379C462.43 180.144 552.905 184.538 623.274 209.803C618.806 219.69 610.988 240.561 610.988 240.561C610.988 240.561 462.43 201.015 403.23 243.857Z" fill="#FF8736"/>
<path d="M527.212 238.37C508.223 262.537 499.287 292.196 484.767 319.659C471.363 344.924 453.491 369.091 427.801 382.273C398.759 396.554 335.092 392.16 335.092 392.16C335.092 392.16 398.759 391.061 425.567 373.485C452.374 355.909 466.895 325.151 476.948 296.59C497.053 241.665 521.627 182.347 579.71 158.18C583.061 168.066 590.88 188.938 590.88 188.938C590.88 188.938 558.487 197.726 527.212 238.37ZM13.5142 124.401L45.1023 93.3242L76.7015 124.39L45.1134 155.477L13.5142 124.401Z" fill="#42ADE2"/>
<path d="M57.7816 221.843L89.3586 190.777L120.947 221.843L89.3586 252.908L57.7816 221.843Z" fill="#FF8736"/>
<path d="M138.036 74.9015L169.624 43.8359L201.212 74.9015L169.624 105.967L138.036 74.9015Z" fill="#ED4C5C"/>
<path d="M482.59 447.045L514.179 415.969L545.767 447.045L514.179 478.111L482.59 447.045Z" fill="#C28FEF"/>
<path d="M412.199 553.546L443.787 522.48L475.386 553.557L443.787 584.623L412.199 553.546Z" fill="#ED4C5C"/>
<path d="M550.436 577.862L582.024 546.785L613.612 577.862L582.024 608.927L550.436 577.862Z" fill="#FF8736"/>
<path d="M581.7 436.42L613.288 405.355L644.876 436.42L613.288 467.497L581.7 436.42ZM528.956 107.881L560.544 76.8047L592.144 107.881L560.555 138.947L528.956 107.881Z" fill="#42ADE2"/>
<path d="M190.377 294.343L221.976 263.277L253.565 294.343L221.976 325.419L190.377 294.343Z" fill="#ED4C5C"/>
</svg>
