<svg width="665" height="755" viewBox="0 0 665 755" fill="none" xmlns="http://www.w3.org/2000/svg">
<path fill-rule="evenodd" clip-rule="evenodd" d="M471.758 210.654C471.758 333.522 403.736 460.923 319.838 460.923C235.941 460.923 167.919 333.522 167.919 210.654C167.919 87.7856 235.941 16 319.838 16C403.736 16 471.758 87.7856 471.758 210.654Z" fill="#EEC261"/>
<path fill-rule="evenodd" clip-rule="evenodd" d="M167.92 210.628C167.92 142.597 188.834 90.318 221.687 57.1157L221.674 56.9071C161.843 29.5721 101.544 43.8931 59.1329 90.4571C-0.191589 155.638 -2.06526 259.208 77.0341 346.079C127.611 401.625 199.038 436.885 259.477 438.081L259.464 438.012C205.621 395.911 167.92 302.06 167.92 210.628Z" fill="#87D6CD"/>
<path fill-rule="evenodd" clip-rule="evenodd" d="M605.863 90.4707C559.388 39.4297 491.429 27.1109 426.155 65.9443L426.142 66.0138C454.26 99.3552 471.756 148.408 471.756 210.642C471.756 301.058 434.852 393.741 381.959 436.496L381.934 436.704C446.487 445.964 530.625 409.063 587.962 346.093C667.061 259.222 665.2 155.638 605.863 90.4707Z" fill="#D3D873"/>
<path fill-rule="evenodd" clip-rule="evenodd" d="M370.478 516.537C370.478 485.824 347.804 460.922 319.838 460.922C291.872 460.922 269.198 485.824 269.198 516.537H370.478Z" fill="#EEC261"/>
<path d="M259.477 438.09C199.038 436.895 127.611 401.635 77.0341 346.089C-2.06527 259.217 -0.191591 155.648 59.1329 90.4665C101.544 43.8886 161.843 29.5676 221.674 56.9165" stroke="#4AA598" stroke-width="31.0149" stroke-linecap="round" stroke-linejoin="round"/>
<path d="M381.934 436.706C446.487 445.966 530.625 409.066 587.962 346.095C667.061 259.21 665.2 155.626 605.863 90.4867C559.388 39.4318 491.429 27.113 426.155 65.9325" stroke="#9DAD2B" stroke-width="31.0149" stroke-linecap="round" stroke-linejoin="round"/>
<path d="M218.56 210.656C218.56 118.515 263.907 71.6172 319.839 71.6172" stroke="white" stroke-width="31.0149" stroke-linecap="round" stroke-linejoin="round"/>
<path d="M111.443 303.652C52.9798 239.444 54.8155 172.052 93.7954 129.242" stroke="white" stroke-width="31.0149" stroke-linecap="round" stroke-linejoin="round"/>
<path d="M319.838 516.539C319.838 516.539 269.198 544.347 269.198 586.058C269.198 627.77 345.158 650.364 345.158 683.385C345.158 716.407 294.518 739.001 294.518 739.001" stroke="#C0CCDB" stroke-width="31.0149" stroke-linecap="round" stroke-linejoin="round"/>
<path fill-rule="evenodd" clip-rule="evenodd" d="M370.478 516.537C370.478 485.824 347.804 460.922 319.838 460.922C291.872 460.922 269.198 485.824 269.198 516.537H370.478Z" stroke="#AF7E37" stroke-width="31.0149" stroke-linecap="round" stroke-linejoin="round"/>
<path fill-rule="evenodd" clip-rule="evenodd" d="M471.758 210.654C471.758 333.522 403.736 460.923 319.838 460.923C235.941 460.923 167.919 333.522 167.919 210.654C167.919 87.7856 235.941 16 319.838 16C403.736 16 471.758 87.7856 471.758 210.654Z" stroke="#AF7E37" stroke-width="31.0149" stroke-linecap="round" stroke-linejoin="round"/>
</svg>
