<svg width="451" height="332" viewBox="0 0 451 332" fill="none" xmlns="http://www.w3.org/2000/svg">
<g clip-path="url(#clip0_358_130)">
<path d="M87.5266 254.478C87.5266 254.478 72.6497 305.701 14.9789 320.822L118.791 326.659H446.592C446.592 326.659 455.224 322.455 404.553 296.15C368.432 265.07 376.656 254.478 376.656 254.478L355.086 263.845C355.086 263.845 343.556 261.172 336.107 254.478C327.169 257.356 305.966 267.866 305.966 267.866L281.395 257.356L273.967 252.989L249.417 267.866L220.031 255.58L195.481 269.355L162.748 257.356L136.341 263.825L109.546 252.968L87.5878 254.458L87.5266 254.478Z" fill="#2A6BB5"/>
<path d="M445.061 315.108C414.41 305.313 377.289 285.314 374.452 245.622C373.575 233.316 374.228 218.786 374.922 203.399C377.942 136.075 382.085 43.8552 256.315 25.8152C253.784 25.4478 245.887 25.2233 236.663 25.1417L244.295 16.7952C246.193 14.7136 246.05 11.4893 243.969 9.5914C241.887 7.69353 238.663 7.83638 236.765 9.91792L230.439 16.836V5.10181C230.439 2.28561 228.153 0 225.337 0C222.521 0 220.235 2.28561 220.235 5.10181V18.04L212.786 9.8771C210.888 7.79557 207.664 7.65271 205.582 9.55059C203.501 11.4485 203.358 14.6728 205.256 16.7543L212.95 25.1621C205.95 25.2846 200.317 25.4886 198.215 25.7743C70.1804 43.8143 74.4047 136.035 77.4862 203.379C78.1801 218.766 78.8535 233.316 77.9556 245.601C75.0782 285.293 37.2432 305.292 6.02009 315.088C1.89782 316.373 -0.510231 320.251 0.142801 324.516C0.795833 328.781 4.26506 331.74 8.57099 331.74H442.511C446.816 331.74 450.286 328.781 450.939 324.536C451.592 320.292 449.204 316.414 445.102 315.108H445.061ZM97.9547 100.016C113.423 64.344 146.687 43.3654 199.624 35.9167C205.623 35.0596 248.989 35.0596 254.866 35.9167C306.802 43.3654 339.413 64.3236 354.596 99.9955C367.942 131.321 366.228 169.38 364.718 202.95C364.024 218.643 363.351 233.479 364.269 246.356C364.371 247.723 364.494 249.07 364.677 250.397C361.065 254.356 354.147 260.396 347.556 260.396C347.494 260.396 347.454 260.396 347.392 260.396C343.352 260.335 339.719 257.968 336.27 253.172C334.638 250.907 332.107 249.438 329.352 249.132C326.597 248.825 323.863 249.723 321.802 251.54C316.782 256.029 306.68 263.457 295.844 262.784C289.15 262.376 282.865 258.866 277.151 252.356C275.334 250.274 272.702 249.05 269.967 249.009C269.906 249.009 269.824 249.009 269.763 249.009C267.11 249.009 264.539 250.111 262.702 252.029C253.295 261.845 238.234 270.171 219.847 254.05C216.153 250.805 210.582 250.846 206.909 254.131C197.95 262.172 180.073 272.865 161.095 254.213C157.768 250.948 152.544 250.519 148.687 253.213C140.953 258.621 125.464 265.437 108.587 250.315C105.26 247.336 100.506 246.928 96.7507 249.295C92.3427 252.05 89.7714 250.723 87.8939 248.744C87.9756 247.948 88.0776 247.152 88.1388 246.336C89.0775 233.438 88.4041 218.623 87.6899 202.909C86.1593 169.339 84.4247 131.3 97.9955 99.9955L97.9547 100.016ZM18.6114 321.557C43.6306 312.231 76.6904 293.742 85.8532 259.682C90.7918 261.968 96.4242 261.478 101.955 258.09C125.137 278.681 147.483 266.437 154.258 261.784C164.258 271.478 174.135 274.763 182.951 274.763C197.216 274.763 208.725 266.151 213.439 261.988C240.336 285.273 262.968 266.355 269.763 259.396C277.273 267.825 285.844 272.396 295.252 272.967C309.537 273.824 321.945 265.029 328.271 259.458C333.617 266.743 340.025 270.478 347.311 270.559C347.392 270.559 347.494 270.559 347.576 270.559C355.31 270.559 362.269 266.233 367.187 262.07C377.044 294.599 408.573 312.435 432.593 321.536H18.6114V321.557Z" fill="#231815"/>
<path d="M174.38 174.87C180.563 186.583 197.175 215.194 224.235 216.725C224.235 216.725 225.071 216.766 225.5 216.766C225.928 216.766 226.765 216.725 226.765 216.725C253.825 215.194 270.437 186.583 276.62 174.87C277.702 172.849 274.702 170.911 271.049 171.196C267.396 171.482 262.6 171.421 255.907 170.605C250.417 169.931 245.377 168.339 241.397 166.054C239.948 165.217 238.418 164.401 236.908 163.646C230.398 160.38 220.602 160.38 214.113 163.646C212.603 164.401 211.072 165.217 209.623 166.054C205.664 168.339 200.624 169.911 195.114 170.605C188.42 171.421 183.502 171.482 179.971 171.196C176.441 170.911 173.319 172.849 174.4 174.87H174.38Z" fill="#EBB426"/>
<path d="M225.582 221.867H225.418C224.827 221.867 223.949 221.827 223.949 221.827C209.603 221.01 188.563 212.623 169.87 177.257C168.686 175.012 168.809 172.38 170.196 170.237C172.074 167.38 176.053 165.748 180.339 166.094C184.175 166.401 188.93 166.197 194.461 165.523C199.297 164.931 203.644 163.584 207.031 161.625C208.46 160.789 210.072 159.932 211.786 159.074C219.704 155.095 231.234 155.095 239.173 159.074C240.867 159.932 242.479 160.789 243.928 161.625C247.336 163.584 251.682 164.931 256.499 165.523C262.029 166.197 266.784 166.401 270.62 166.094C274.886 165.748 278.906 167.38 280.763 170.237C282.171 172.38 282.293 174.992 281.11 177.257C262.417 212.623 241.377 221.01 227.031 221.827C227.031 221.827 226.153 221.867 225.561 221.867H225.582ZM225.48 211.664H225.643C225.969 211.664 226.48 211.643 226.48 211.643C242.397 210.746 257.376 198.583 269.988 176.38C265.784 176.584 260.825 176.359 255.274 175.665C249.091 174.91 243.418 173.115 238.846 170.482C237.561 169.747 236.132 168.992 234.602 168.217C229.479 165.646 221.48 165.646 216.378 168.217C214.827 168.992 213.398 169.747 212.133 170.482C207.562 173.115 201.889 174.91 195.705 175.665C190.155 176.339 185.216 176.584 180.992 176.38C193.603 198.583 208.582 210.746 224.5 211.643C224.52 211.643 225.051 211.684 225.337 211.664H225.439H225.48Z" fill="#231815"/>
<path d="M294.517 93.6694C283.11 93.6694 273.824 102.955 273.824 114.362C273.824 125.77 283.11 135.055 294.517 135.055C305.925 135.055 315.21 125.77 315.21 114.362C315.21 102.955 305.925 93.6694 294.517 93.6694Z" fill="#231815"/>
<path d="M153.789 93.6694C142.381 93.6694 133.096 102.955 133.096 114.362C133.096 125.77 142.381 135.055 153.789 135.055C165.197 135.055 174.482 125.77 174.482 114.362C174.482 102.955 165.197 93.6694 153.789 93.6694Z" fill="#231815"/>
<path d="M157.523 118.546C161.615 118.546 164.931 115.229 164.931 111.138C164.931 107.047 161.615 103.73 157.523 103.73C153.432 103.73 150.116 107.047 150.116 111.138C150.116 115.229 153.432 118.546 157.523 118.546Z" fill="white"/>
<path d="M299.272 118.546C303.363 118.546 306.68 115.229 306.68 111.138C306.68 107.047 303.363 103.73 299.272 103.73C295.181 103.73 291.864 107.047 291.864 111.138C291.864 115.229 295.181 118.546 299.272 118.546Z" fill="white"/>
<path d="M278.702 175.605C272.253 159.442 254.988 119.954 226.826 117.852C226.826 117.852 225.949 117.791 225.5 117.791C225.051 117.791 224.174 117.852 224.174 117.852C196.032 119.954 178.747 159.463 172.298 175.605C171.176 178.401 174.278 181.074 178.094 180.686C181.91 180.298 186.89 180.38 193.848 181.502C199.562 182.441 204.807 187.482 208.929 190.624C210.439 191.788 212.031 192.91 213.603 193.951C220.378 198.461 230.561 198.461 237.316 193.951C238.887 192.91 240.479 191.788 241.989 190.624C246.111 187.482 251.356 182.441 257.07 181.502C264.029 180.36 269.131 180.298 272.824 180.686C276.518 181.074 279.742 178.401 278.62 175.605H278.702Z" fill="#EBB426"/>
<path d="M225.5 202.44C220.276 202.44 215.072 201.011 210.807 198.175C209.031 196.991 207.378 195.808 205.868 194.665C205.093 194.073 204.277 193.4 203.419 192.726C200.134 190.073 196.42 187.073 193.053 186.522C187.4 185.604 182.543 185.339 178.645 185.747C174.666 186.175 170.87 184.645 168.707 181.767C166.931 179.421 166.503 176.4 167.584 173.707C183.053 134.892 201.971 114.383 223.806 112.75C223.806 112.75 224.786 112.689 225.5 112.689C226.153 112.689 227.214 112.75 227.214 112.75C249.05 114.383 267.968 134.892 283.436 173.707C284.518 176.4 284.089 179.421 282.314 181.767C280.151 184.624 276.335 186.175 272.355 185.747C268.457 185.339 263.6 185.604 257.948 186.522C254.601 187.073 250.866 190.073 247.581 192.726C246.724 193.42 245.907 194.073 245.132 194.665C243.642 195.808 241.969 196.991 240.193 198.175C235.949 201.011 230.724 202.44 225.5 202.44ZM182.42 175.36C186.114 175.36 190.216 175.727 194.685 176.462C200.705 177.441 205.746 181.523 209.807 184.788C210.582 185.42 211.337 186.012 212.031 186.563C213.358 187.584 214.847 188.624 216.439 189.706C221.5 193.073 229.439 193.073 234.5 189.706C236.091 188.645 237.581 187.584 238.908 186.563C239.622 186.012 240.357 185.42 241.132 184.788C245.193 181.523 250.234 177.441 256.254 176.462C262.702 175.421 268.376 175.115 273.131 175.584C259.58 142.402 243.438 124.199 226.398 122.933C226.357 122.933 225.847 122.893 225.602 122.893H225.276C225.112 122.893 224.561 122.933 224.541 122.933C207.48 124.219 191.338 142.402 177.788 175.584C179.237 175.441 180.767 175.38 182.4 175.38L182.42 175.36Z" fill="#231815"/>
<path d="M176.217 106.852C175.359 106.852 174.482 106.628 173.666 106.179L140.953 87.3021C138.504 85.894 137.667 82.7717 139.075 80.3228C140.483 77.8739 143.606 77.0576 146.055 78.4453L178.767 97.322C181.216 98.7301 182.053 101.852 180.645 104.301C179.706 105.934 177.992 106.852 176.217 106.852Z" fill="#231815"/>
<path d="M269.784 106.852C268.029 106.852 266.314 105.934 265.355 104.302C263.947 101.853 264.784 98.7508 267.233 97.3223L299.946 78.4456C302.374 77.0375 305.496 77.8742 306.925 80.3231C308.333 82.7719 307.496 85.8738 305.047 87.3023L272.335 106.179C271.539 106.648 270.661 106.852 269.784 106.852Z" fill="#231815"/>
</g>
<defs>
<clipPath id="clip0_358_130">
<rect width="451" height="331.76" fill="white"/>
</clipPath>
</defs>
</svg>
