<svg width="185" height="304" viewBox="0 0 185 304" fill="none" xmlns="http://www.w3.org/2000/svg">
<g clip-path="url(#clip0_377_110)">
<path d="M60.5334 5.54541L43.1822 17.3813V116.786L14.7777 138.087L5.31201 192.526L24.2434 230.396L49.4876 266.694L55.8006 299.041H141.014L167.049 225.664L178.094 183.061V116.786L163.625 106.53L152.06 111.79L141.533 88.6522L116.289 92.3316L98.4036 79.179L78.9456 87.5988V13.431L60.5334 5.54541Z" fill="#F1E3C9"/>
<path d="M143.415 303.647L54.2807 304C49.8338 304.015 46.2146 300.434 46.192 295.987C46.1619 289.177 45.9287 279.93 45.2665 276.145C40.1725 240.329 -0.571988 227.643 0.0675843 189.283C-0.722476 162.324 5.55286 127.674 31.7603 114.258C38.0206 113.182 38.5096 109.367 38.457 103.98C38.2011 77.1853 38.299 50.391 38.3592 23.5966C37.7723 -6.37296 82.3467 -8.53246 83.9418 21.3544C84.1676 39.9396 84.002 58.3217 84.0321 76.9295C97.8845 70.3155 108.915 73.4457 117.395 86.1092C132.008 73.8971 154.972 84.8451 155.01 103.528C169.058 99.9841 184.407 105.748 184.505 121.865C184.257 143.009 184.212 164.182 182.865 185.265C181.631 204.618 175.95 223.015 166.815 240.254C160.548 252.082 154.641 264.091 152.7 277.544C152.12 281.547 151.729 289.606 151.323 296.182C151.067 300.366 147.613 303.624 143.422 303.639L143.415 303.647ZM138.057 295.136C139.57 295.136 140.804 293.925 140.834 292.413C141.135 272.42 147.741 254.332 156.815 236.777C176.65 201.375 174.565 160.157 174.054 121.075C174.076 113.581 163.429 109.766 158.185 115.003C152.158 119.171 155.837 140.172 154.784 148.208C154.558 156.71 143.52 154.897 144.618 147.29C144.649 133.264 144.618 119.247 144.633 105.221C144.641 99.9616 142.873 95.6275 138.17 92.9263C129.547 87.9752 119.562 94.2054 119.442 104.702C119.306 116.342 119.442 127.99 119.389 139.63C119.841 147.749 108.84 147.666 109.201 139.6C109.043 125.206 109.359 110.804 109.096 96.4101C108.012 78.8331 83.844 80.1574 84.1224 97.9676C83.8215 108.103 83.9945 118.246 84.002 128.389C84.002 131.541 82.3617 133.325 79.3595 133.739C74.8073 134.453 73.1669 128.976 73.7087 125.108C73.7087 91.9331 73.7087 58.7505 73.6936 25.5756C74.6492 18.4123 70.3077 10.6321 62.5576 10.1431C54.2506 9.56367 48.645 15.1242 48.6375 24.0556C48.5848 74.3862 48.6901 124.724 48.5998 175.047C48.3591 177.854 46.478 179.743 44.0024 179.517C40.6165 178.847 37.4713 175.74 38.3291 171.782C38.299 155.07 38.3065 138.96 38.3065 122.166C14.078 134.604 9.57088 165.521 10.4211 190.156C14.6047 234.844 54.5441 228.809 57.8699 292.653C58.058 294.076 59.2694 295.136 60.7066 295.136H138.027H138.057Z" fill="black"/>
</g>
<defs>
<clipPath id="clip0_377_110">
<rect width="184.498" height="304" fill="white"/>
</clipPath>
</defs>
</svg>
