<svg width="439" height="323" viewBox="0 0 439 323" fill="none" xmlns="http://www.w3.org/2000/svg">
<g clip-path="url(#clip0_358_164)">
<path d="M166.721 166.681L227.704 149.876L272.061 171.071L222.718 220.215C222.718 220.215 171.329 199.139 166.701 166.661L166.721 166.681Z" fill="#B83834"/>
<path d="M75.5119 249.516C75.5119 249.516 60.8474 300.954 4 316.139L106.329 322H429.45C429.45 322 437.96 317.778 388.012 291.363C352.407 260.152 360.513 249.516 360.513 249.516L339.251 258.923C339.251 258.923 327.885 256.238 320.543 249.516C311.732 252.406 290.832 262.96 290.832 262.96L266.613 252.406L259.29 248.02L235.091 262.96L206.124 250.623L181.925 264.456L149.659 252.406L123.629 258.902L97.2169 248L75.5722 249.496L75.5119 249.516Z" fill="#2A6BB5"/>
<path d="M433.219 306.724C403.383 297.189 367.25 277.722 364.489 239.086C363.635 227.108 364.271 212.965 364.946 197.987C367.886 132.455 371.918 42.6883 249.495 25.1283C247.032 24.7707 239.344 24.5522 230.366 24.4728L237.795 16.3483C239.642 14.3221 239.503 11.1836 237.477 9.3362C235.451 7.48882 232.312 7.62787 230.465 9.65403L224.307 16.388V4.96606C224.307 2.2248 222.082 0 219.341 0C216.6 0 214.375 2.2248 214.375 4.96606V17.56L207.125 9.6143C205.277 7.58815 202.139 7.44909 200.112 9.29647C198.086 11.1438 197.947 14.2824 199.795 16.3086L207.283 24.4926C200.47 24.6118 194.987 24.8105 192.941 25.0886C68.3131 42.6486 72.425 132.415 75.4245 197.967C76.0999 212.945 76.7554 227.108 75.8814 239.066C73.0805 277.702 36.2522 297.169 5.8599 306.704C1.84733 307.956 -0.496657 311.73 0.138999 315.881C0.774655 320.033 4.15158 322.913 8.34293 322.913H430.736C434.928 322.913 438.305 320.033 438.94 315.901C439.576 311.769 437.252 307.995 433.259 306.724H433.219ZM95.3484 97.3547C110.405 62.632 142.784 42.2115 194.312 34.9611C200.152 34.1467 242.364 34.1467 248.085 34.9611C298.639 42.2115 330.382 62.6121 345.161 97.3348C358.152 127.826 356.484 164.873 355.014 197.55C354.338 212.826 353.683 227.267 354.577 239.801C354.676 241.132 354.795 242.443 354.974 243.734C351.458 247.588 344.724 253.468 338.308 253.468C338.248 253.468 338.209 253.468 338.149 253.468C334.216 253.408 330.68 251.104 327.323 246.436C325.734 244.231 323.291 242.801 320.589 242.503C317.947 242.225 315.246 243.059 313.239 244.847C308.353 249.217 298.599 256.448 287.972 255.792C281.457 255.395 275.338 251.978 269.776 245.661C268.008 243.635 265.466 242.443 262.784 242.384C260.142 242.264 257.54 243.397 255.693 245.324C246.535 254.878 231.875 262.983 213.998 247.29C210.402 244.132 204.979 244.171 201.404 247.37C192.683 255.196 175.282 265.605 156.808 247.449C153.57 244.271 148.485 243.854 144.731 246.476C137.202 251.74 122.125 258.374 105.698 243.655C102.46 240.755 97.8314 240.357 94.1764 242.662C89.8857 245.343 87.3828 244.052 85.5553 242.125C85.6347 241.351 85.7341 240.576 85.7936 239.781C86.7074 227.227 86.0519 212.806 85.3566 197.51C83.8668 164.834 82.1784 127.807 95.3881 97.3348L95.3484 97.3547ZM18.1161 313.001C42.4697 303.923 74.6498 285.926 83.5689 252.773C88.376 254.978 93.8585 254.521 99.2418 251.223C121.808 271.266 143.559 259.348 150.154 254.819C159.867 264.254 169.502 267.452 178.083 267.452C191.968 267.452 203.172 259.07 207.76 255.017C233.941 277.682 255.971 259.268 262.586 252.495C269.896 260.698 278.239 265.148 287.396 265.704C301.361 266.539 313.378 257.977 319.536 252.554C324.741 259.646 330.978 263.281 338.07 263.38C338.149 263.38 338.248 263.38 338.328 263.38C345.856 263.38 352.63 259.169 357.417 255.117C367.012 286.78 397.702 304.142 421.082 313.001H18.1161Z" fill="#231815"/>
<path d="M286.681 131.461C297.805 131.461 306.823 122.443 306.823 111.319C306.823 100.195 297.805 91.1768 286.681 91.1768C275.557 91.1768 266.539 100.195 266.539 111.319C266.539 122.443 275.557 131.461 286.681 131.461Z" fill="#231815"/>
<path d="M149.697 131.461C160.821 131.461 169.839 122.443 169.839 111.319C169.839 100.195 160.821 91.1768 149.697 91.1768C138.573 91.1768 129.555 100.195 129.555 111.319C129.555 122.443 138.573 131.461 149.697 131.461Z" fill="#231815"/>
<path d="M153.332 115.392C157.315 115.392 160.543 112.163 160.543 108.181C160.543 104.199 157.315 100.97 153.332 100.97C149.35 100.97 146.121 104.199 146.121 108.181C146.121 112.163 149.35 115.392 153.332 115.392Z" fill="white"/>
<path d="M291.309 115.392C295.292 115.392 298.52 112.163 298.52 108.181C298.52 104.199 295.292 100.97 291.309 100.97C287.327 100.97 284.099 104.199 284.099 108.181C284.099 112.163 287.327 115.392 291.309 115.392Z" fill="white"/>
<path d="M168.409 79.9537C167.515 79.9537 166.621 79.7153 165.827 79.2187L159.212 75.1664C153.551 71.7101 146.519 71.7101 140.877 75.1664L134.262 79.2187C131.919 80.649 128.859 79.914 127.429 77.57C125.999 75.226 126.734 72.1669 129.078 70.7367L135.693 66.6844C144.552 61.2615 155.557 61.2615 164.397 66.6844L171.011 70.7367C173.355 72.1669 174.09 75.226 172.66 77.57C171.726 79.0996 170.098 79.9339 168.429 79.9339L168.409 79.9537Z" fill="#231815"/>
<path d="M306.247 79.9537C305.353 79.9537 304.459 79.7153 303.665 79.2187L297.05 75.1664C291.389 71.7101 284.357 71.7101 278.715 75.1664L272.1 79.2187C269.756 80.649 266.697 79.914 265.267 77.57C263.837 75.226 264.572 72.1669 266.916 70.7367L273.531 66.6844C282.39 61.2615 293.395 61.2615 302.254 66.6844L308.869 70.7367C311.213 72.1669 311.948 75.226 310.518 77.57C309.584 79.0996 307.955 79.9339 306.287 79.9339L306.247 79.9537Z" fill="#231815"/>
<path d="M271.266 161.099C264.989 148.108 248.184 116.384 220.771 114.676C220.771 114.676 219.917 114.617 219.48 114.636C219.043 114.636 218.189 114.676 218.189 114.676C190.796 116.365 173.971 148.108 167.694 161.099C166.601 163.344 169.621 165.489 173.335 165.191C177.05 164.893 181.897 164.933 188.671 165.846C194.233 166.601 199.338 170.654 203.35 173.176C204.82 174.11 206.37 175.004 207.899 175.838C214.494 179.473 224.406 179.473 230.982 175.838C232.511 175.004 234.06 174.09 235.53 173.176C239.543 170.654 244.648 166.601 250.21 165.846C256.984 164.933 261.95 164.873 265.545 165.191C269.141 165.509 272.279 163.363 271.187 161.099H271.266Z" fill="#EBB426"/>
<path d="M219.5 183.546C214.554 183.546 209.608 182.433 205.555 180.208C203.827 179.255 202.218 178.302 200.748 177.388C199.993 176.911 199.199 176.375 198.364 175.818C195.146 173.673 191.472 171.23 188.055 170.773C182.473 170.018 177.686 169.819 173.792 170.137C169.641 170.475 165.747 168.906 163.821 166.085C162.351 163.94 162.132 161.278 163.264 158.934C173.673 137.381 191.591 111.339 217.911 109.71C217.911 109.71 218.884 109.631 219.5 109.651C220.096 109.651 221.089 109.71 221.089 109.71C247.409 111.339 265.327 137.361 275.736 158.914C276.868 161.238 276.65 163.92 275.18 166.065C273.253 168.886 269.32 170.455 265.208 170.117C261.334 169.78 256.527 169.998 250.945 170.753C247.529 171.21 243.854 173.653 240.636 175.799C239.801 176.355 239.007 176.871 238.252 177.368C236.802 178.282 235.173 179.235 233.445 180.189C229.412 182.413 224.446 183.526 219.5 183.526V183.546ZM177.586 160.066C181.122 160.066 185.075 160.364 189.386 160.94C195.087 161.715 199.973 164.953 203.887 167.575C204.642 168.071 205.377 168.568 206.052 169.005C207.343 169.819 208.793 170.674 210.363 171.528C215.487 174.349 223.533 174.349 228.657 171.528C230.207 170.674 231.657 169.819 232.948 169.005C233.643 168.568 234.359 168.091 235.113 167.575C239.027 164.973 243.913 161.715 249.614 160.94C255.574 160.146 260.818 159.887 265.267 160.185C252.296 134.66 236.861 120.655 220.473 119.642C220.434 119.642 219.897 119.603 219.619 119.603H219.52H219.361C219.043 119.603 218.547 119.642 218.527 119.642C202.139 120.655 186.684 134.66 173.713 160.185C174.945 160.106 176.216 160.066 177.567 160.066H177.586Z" fill="#231815"/>
<path d="M168.449 163.9C172.183 178.52 181.261 191.253 193.955 199.417C201.563 204.304 210.541 208.396 219.5 208.396C228.459 208.396 237.418 204.304 245.045 199.417C257.758 191.273 266.817 178.52 270.551 163.9C270.65 163.483 271.266 163.562 271.266 163.999V166.86C271.266 177.448 269.26 187.995 265.029 197.709C264.989 197.789 264.969 197.848 264.929 197.928C258.533 212.568 241.589 228.618 220.771 229.81C220.771 229.81 219.917 229.869 219.48 229.849C219.043 229.849 218.189 229.81 218.189 229.81C197.351 228.618 181.281 212.17 174.031 197.928C172.461 194.849 171.21 191.73 170.237 188.552C168.429 182.672 167.694 176.534 167.694 170.396V163.999C167.694 163.562 168.31 163.503 168.409 163.9H168.449Z" fill="#EBB426"/>
<path d="M219.421 234.795C218.825 234.795 217.931 234.756 217.931 234.756C194.61 233.425 177.328 215.289 169.641 200.172C167.952 196.875 166.621 193.537 165.529 190.002C163.701 184.062 162.768 177.447 162.768 170.396V163.999C162.768 161.318 164.774 159.033 167.436 158.715C170.117 158.378 172.601 160.086 173.256 162.688C176.732 176.236 185.036 187.797 196.636 195.246C205.098 200.688 212.806 203.43 219.5 203.43C226.194 203.43 233.882 200.669 242.364 195.246C253.964 187.797 262.288 176.236 265.744 162.688C266.419 160.086 268.902 158.378 271.584 158.715C274.246 159.053 276.252 161.318 276.252 163.999V166.86C276.252 178.48 274.027 189.525 269.618 199.675L269.518 199.894C262.605 215.746 244.509 233.405 221.089 234.736C221.089 234.736 220.116 234.776 219.52 234.776H219.44L219.421 234.795ZM219.48 224.863H219.639C219.937 224.863 220.493 224.824 220.493 224.824C238.868 223.771 254.481 209.488 260.4 195.921L265.049 197.689L260.5 195.703C261.235 193.994 261.91 192.246 262.526 190.478C258.335 195.544 253.369 199.973 247.747 203.569C237.656 210.045 228.161 213.322 219.52 213.322C210.879 213.322 201.404 210.045 191.293 203.569C185.393 199.795 180.228 195.126 175.918 189.743C176.653 191.75 177.507 193.696 178.48 195.623C185.492 209.409 200.589 223.771 218.507 224.784C218.547 224.784 219.083 224.824 219.381 224.824H219.48V224.863Z" fill="#231815"/>
</g>
<defs>
<clipPath id="clip0_358_164">
<rect width="439" height="322.933" fill="white"/>
</clipPath>
</defs>
</svg>
