<svg width="363" height="250" viewBox="0 0 363 250" fill="none" xmlns="http://www.w3.org/2000/svg">
<g clip-path="url(#clip0_358_750)">
<path d="M62.7532 200.598C66.7175 138.17 31.6176 21.0501 154.606 4.45805C232.879 -6.09721 273.099 19.0258 286.836 40.4375C292.379 49.077 295.319 59.4876 295.548 70.1393L298.379 204.273L62.7532 200.61V200.598Z" fill="white"/>
<path d="M274.184 67.5005C268.424 67.5005 263.761 72.1636 263.761 77.9232C263.761 83.6828 268.424 88.3459 274.184 88.3459C279.944 88.3459 284.607 83.6828 284.607 77.9232C284.607 72.1636 279.944 67.5005 274.184 67.5005Z" fill="#231815" stroke="#231815" stroke-width="5" stroke-miterlimit="10"/>
<path d="M276.678 80.7308C279.413 80.7308 281.631 78.5136 281.631 75.7785C281.631 73.0434 279.413 70.8262 276.678 70.8262C273.943 70.8262 271.726 73.0434 271.726 75.7785C271.726 78.5136 273.943 80.7308 276.678 80.7308Z" fill="white"/>
<path d="M193.477 137.736C193.477 137.736 198.526 120.879 237.445 122.627C276.365 124.374 275.738 132.013 275.738 132.013L273.184 154.389C273.184 154.389 225.239 170.017 193.477 137.736Z" fill="#B83834"/>
<path d="M193.477 134.724C193.477 134.724 198.526 117.867 237.445 119.614C276.365 121.361 275.738 129.001 275.738 129.001L273.184 151.377C273.184 151.377 225.239 167.005 193.477 134.724Z" fill="#B83834"/>
<path d="M63.2955 191.85C63.2955 191.85 40.4137 234.156 6.0247 239.771L3.63892 246.446H293.294L295.861 189.742C295.861 189.742 282.667 191.899 278.763 186.006C274.859 180.114 270.641 208.635 238.638 189.742C214.25 203.358 207.045 204.852 190.826 189.742C190.826 189.742 173.355 213.383 143.448 187.272C143.448 187.272 132.242 209.852 95.8047 190.766C95.8047 190.766 84.2132 203.177 63.2955 191.85Z" fill="#2A6BB5"/>
<path d="M295.524 67.1635C295.234 55.1141 290.921 43.4503 283.354 34.3048C266.509 13.9414 230.421 -8.03672 154.257 2.90413C109.276 9.3626 80.8878 27.8343 67.4527 59.3676C55.9576 86.3702 57.3794 118.229 58.6446 146.34C59.2109 158.908 59.7411 170.788 59.0182 180.862C56.7529 212.588 28.003 229.059 4.28981 237.277C1.27746 238.325 -0.445601 241.241 0.0845719 244.374C0.614745 247.507 3.20536 249.688 6.3864 249.688H6.4105L293.307 248.676C295.042 248.676 296.656 247.977 297.861 246.748C299.066 245.519 299.705 243.868 299.669 242.145L295.512 67.1756L295.524 67.1635ZM155.112 8.86858C168.86 6.89248 181.235 6.01287 192.381 6.01287C240.723 6.01287 265.81 22.5687 278.715 38.1486C285.414 46.2458 289.258 56.6083 289.511 67.3081L292.294 184.356C290.607 186.019 288.005 187.344 283.872 184.754C281.245 183.103 277.907 183.392 275.594 185.464C261.255 198.297 248.085 192.501 241.518 187.898C238.831 186.019 235.192 186.308 232.867 188.585C225.95 195.381 211.696 204.418 193.995 188.549C191.429 186.248 187.549 186.224 184.97 188.489C168.499 202.936 155.052 193.61 148.497 186.778C147.172 185.404 145.304 184.621 143.424 184.669C141.508 184.705 139.677 185.561 138.4 187.019C133.532 192.562 128.146 195.538 122.386 195.887C113.096 196.466 104.637 190.212 100.42 186.44C98.986 185.163 97.0701 184.549 95.1663 184.754C93.2384 184.958 91.4672 185.995 90.3345 187.573C87.2981 191.79 84.0327 193.875 80.3576 193.923C80.3094 193.923 80.2612 193.923 80.213 193.923C73.3931 193.923 66.8985 187.115 64.7175 184.597C64.8621 183.476 64.9706 182.368 65.0549 181.283C65.802 170.861 65.2597 158.811 64.6814 146.063C62.2112 91.0695 59.1386 22.629 155.124 8.85653L155.112 8.86858ZM293.548 242.542C293.475 242.615 293.391 242.651 293.294 242.651L6.39845 243.663C6.24181 243.663 6.08517 243.663 6.03697 243.362C5.98877 243.061 6.12132 243.024 6.26591 242.964C44.3902 229.746 58.7049 209.407 63.2957 191.839C67.1515 195.465 73.3087 199.96 80.201 199.96C80.2733 199.96 80.3456 199.96 80.4058 199.96C86.0449 199.888 91.0213 196.911 95.2025 191.104C95.3953 190.838 95.6604 190.766 95.8049 190.754C95.9616 190.73 96.1905 190.754 96.3954 190.935C101.312 195.333 111.264 202.611 122.747 201.912C130.17 201.466 136.966 197.791 142.918 191.007C143.135 190.754 143.4 190.718 143.545 190.706C143.689 190.706 143.942 190.742 144.147 190.959C149.196 196.237 167.354 211.973 188.935 193.043C189.224 192.79 189.67 192.802 189.959 193.068C193.538 196.273 202.755 203.358 214.25 203.358C221.275 203.358 229.144 200.707 237.084 192.911C237.337 192.67 237.747 192.646 238.06 192.863C244.531 197.393 261.532 206.165 279.606 189.983C279.908 189.706 280.329 189.67 280.667 189.887C284.691 192.405 288.812 192.863 292.451 191.357L293.656 242.301C293.656 242.398 293.62 242.494 293.548 242.566V242.542Z" fill="#231815"/>
<path d="M295.861 208.045C295.861 208.045 328.467 215.009 356.023 231.409C363.133 235.638 360.048 246.555 351.77 246.434L296.74 245.663L295.849 208.045H295.861Z" fill="#2A6BB5"/>
<path d="M351.903 249.446C351.903 249.446 351.794 249.446 351.734 249.446L293.812 248.627L292.764 204.297L296.499 205.093C297.849 205.382 329.9 212.346 357.578 228.818C361.952 231.421 363.964 236.469 362.578 241.373C361.205 246.229 356.939 249.458 351.915 249.458L351.903 249.446ZM299.693 242.687L351.818 243.422C351.818 243.422 351.878 243.422 351.903 243.422C354.71 243.422 356.252 241.518 356.758 239.723C357.265 237.915 356.939 235.457 354.481 233.987C333.057 221.239 308.224 214.214 298.958 211.876L299.693 242.675V242.687Z" fill="#231815"/>
<path d="M171.342 146.147C170.186 146.22 169.354 145.075 169.752 143.978C174.511 130.796 202.779 57.1265 240.747 57.1265C273.63 57.1265 289.487 94.8411 294.716 110.782C296.764 117.024 293.74 123.94 287.643 126.386C282.245 128.543 273.847 129.194 260.954 124.904C230.637 114.819 206.201 120.711 191.465 134.616C181.404 144.099 174.632 145.93 171.342 146.147Z" fill="#EBB426"/>
<path d="M171.246 149.16C169.8 149.16 168.451 148.485 167.571 147.316C166.631 146.063 166.378 144.436 166.92 142.954C172.27 128.121 200.972 54.1021 240.747 54.1021C275.521 54.1021 292.077 93.0818 297.584 109.83C300.162 117.663 296.283 126.157 288.776 129.17C281.402 132.122 271.726 131.64 260.026 127.748C233.312 118.868 209.069 122.157 193.549 136.785C183.259 146.485 175.909 148.846 171.559 149.124C171.463 149.124 171.366 149.124 171.27 149.124L171.246 149.16ZM240.747 60.1388C206.442 60.1388 179.174 127.459 173.427 142.749C176.548 141.918 181.934 139.472 189.404 132.423C206.587 116.217 233.023 112.445 261.906 122.049C272.22 125.483 280.498 126.001 286.523 123.591C291.089 121.759 293.439 116.554 291.848 111.722C286.751 96.2147 271.581 60.1388 240.735 60.1388H240.747Z" fill="#231815"/>
<path d="M193.477 137.134C200.406 145.039 225.468 168.017 273.184 153.786C274.558 153.377 276.052 153.871 276.883 155.04C280.197 159.703 284.149 171.246 240.313 169.571C194.791 167.824 186.549 148.702 185.055 142.315C184.778 141.098 185.211 139.845 186.163 139.038L188.85 136.785C190.224 135.628 192.284 135.773 193.465 137.122L193.477 137.134Z" fill="#EBB426"/>
<path d="M248.736 172.752C246.061 172.752 243.217 172.692 240.205 172.583C220.082 171.812 204.671 167.619 194.405 160.112C185.717 153.762 182.982 146.665 182.139 142.99C181.596 140.665 182.404 138.267 184.259 136.724L186.946 134.471C189.573 132.278 193.525 132.579 195.767 135.134C220.649 163.522 260.677 154.365 272.352 150.882C274.967 150.099 277.787 151.063 279.365 153.28C282.004 157.004 282.522 160.799 280.799 163.98C277.594 169.908 267.34 172.728 248.76 172.728L248.736 172.752ZM191.007 139.026C190.935 139.026 190.862 139.05 190.802 139.098L188.115 141.351C188.019 141.424 187.983 141.532 188.007 141.629C189.272 147.051 196.779 164.884 240.446 166.559C269.629 167.679 274.642 162.691 275.485 161.136C276.22 159.787 275.329 158.028 274.449 156.787C274.365 156.678 274.22 156.63 274.063 156.666C252.977 162.944 233.782 162.92 216.986 156.57C203.382 151.425 195.007 143.424 191.224 139.11C191.224 139.11 191.091 139.014 191.019 139.014L191.007 139.026Z" fill="#231815"/>
<path d="M275.75 131.411C275.148 137.062 274.292 148.232 276.148 152.871L288.619 129.712C289.354 128.362 287.908 126.82 286.535 127.519C284.414 128.591 281.847 129.338 279.076 128.917C277.449 128.664 275.919 129.772 275.75 131.411Z" fill="#EBB426"/>
<path d="M275.75 159.968L273.353 154.003C271.376 149.087 271.931 138.833 272.75 131.097C272.919 129.495 273.714 128.073 274.991 127.097C276.268 126.109 277.931 125.687 279.546 125.94C281.317 126.217 283.209 125.844 285.185 124.844C286.968 123.94 289.113 124.289 290.523 125.723C291.945 127.181 292.258 129.35 291.294 131.146L275.762 159.968H275.75ZM278.727 131.917C278.293 136.11 278.052 139.881 278.028 143.038L284.173 131.627C282.341 132.085 280.522 132.182 278.727 131.917Z" fill="#231815"/>
<path d="M178.897 67.5005C173.138 67.5005 168.475 72.1636 168.475 77.9232C168.475 83.6828 173.138 88.3459 178.897 88.3459C184.657 88.3459 189.32 83.6828 189.32 77.9232C189.32 72.1636 184.657 67.5005 178.897 67.5005Z" fill="#231815" stroke="#231815" stroke-width="5" stroke-miterlimit="10"/>
<path d="M181.404 80.7308C184.139 80.7308 186.356 78.5136 186.356 75.7785C186.356 73.0434 184.139 70.8262 181.404 70.8262C178.669 70.8262 176.451 73.0434 176.451 75.7785C176.451 78.5136 178.669 80.7308 181.404 80.7308Z" fill="white"/>
<path d="M162.98 60.1625L168.414 56.8368C174.343 53.21 181.789 53.21 187.718 56.8368L193.152 60.1625" stroke="#231815" stroke-width="5" stroke-miterlimit="10" stroke-linecap="round"/>
<path d="M261.653 59.4275L265.786 56.8971C270.292 54.1378 275.967 54.1378 280.462 56.8971L284.595 59.4275" stroke="#231815" stroke-width="5" stroke-miterlimit="10" stroke-linecap="round"/>
</g>
<defs>
<clipPath id="clip0_358_750">
<rect width="363" height="249.7" fill="white"/>
</clipPath>
</defs>
</svg>
