<svg width="889" height="654" viewBox="0 0 889 654" fill="none" xmlns="http://www.w3.org/2000/svg">
<g clip-path="url(#clip0_377_125)">
<path d="M362.117 324.646L454.919 291.94L522.418 333.175L447.356 428.799C447.356 428.799 369.156 387.806 362.157 324.646H362.117Z" fill="#B83834"/>
<path d="M161.267 501.653C161.267 501.653 131.942 602.628 18.2627 632.437L222.894 643.943H869.048C869.048 643.943 886.064 635.656 786.182 583.801C714.981 522.532 731.193 501.653 731.193 501.653L688.673 520.118C688.673 520.118 665.945 514.848 651.263 501.653C633.644 507.326 591.849 528.044 591.849 528.044L543.416 507.326L528.774 498.717L480.382 528.044L422.456 503.826L374.064 530.98L309.541 507.326L257.488 520.078L204.671 498.677L161.388 501.613L161.267 501.653Z" fill="#2A6BB5"/>
<path d="M877.294 621.173C816.874 601.863 743.703 562.439 738.111 484.194C736.382 459.936 737.669 431.293 739.037 400.961C744.99 268.246 753.156 86.4517 505.242 50.8895C500.254 50.1653 484.686 49.7228 466.504 49.5619L481.548 33.1083C485.289 29.005 485.008 22.6488 480.905 18.9075C476.802 15.1663 470.446 15.4479 466.705 19.5512L454.235 33.1888V10.0572C454.235 4.50563 449.729 0 444.178 0C438.627 0 434.122 4.50563 434.122 10.0572V35.5623L419.439 19.4707C415.698 15.3674 409.342 15.0858 405.239 18.8271C401.136 22.5684 400.855 28.9245 404.596 33.0279L419.761 49.6021C405.963 49.8435 394.861 50.2458 390.717 50.809C138.338 86.3713 146.665 268.165 152.739 400.92C154.107 431.253 155.434 459.936 153.664 484.154C147.992 562.399 73.4129 601.823 11.8667 621.133C3.74102 623.667 -1.00567 631.311 0.281565 639.719C1.5688 648.127 8.40727 653.96 16.895 653.96H872.266C880.754 653.96 887.592 648.127 888.879 639.759C890.167 631.391 885.46 623.748 877.375 621.173H877.294ZM193.086 197.161C223.577 126.841 289.146 85.4862 393.493 70.8027C405.32 69.1533 490.8 69.1131 502.386 70.8027C604.761 85.4862 669.043 126.801 698.971 197.121C725.279 258.872 721.9 333.899 718.923 400.076C717.556 431.012 716.228 460.258 718.038 485.642C718.24 488.338 718.481 490.993 718.843 493.608C711.723 501.412 698.086 513.32 685.093 513.32C684.972 513.32 684.892 513.32 684.771 513.32C676.807 513.199 669.646 508.533 662.848 499.079C659.63 494.613 654.682 491.717 649.211 491.113C643.821 490.51 638.391 492.28 634.328 495.86C624.432 504.711 604.761 519.354 583.16 518.027C569.966 517.222 557.576 510.303 546.313 497.47C542.732 493.366 537.543 490.953 532.153 490.872C526.682 490.711 521.533 492.924 517.792 496.826C499.248 516.176 469.561 532.589 433.357 500.809C426.036 494.412 415.095 494.493 407.854 500.969C390.195 516.82 354.956 537.9 317.546 501.13C310.989 494.654 300.691 493.849 293.088 499.159C277.843 509.82 247.311 523.256 214.004 493.447C207.487 487.614 198.074 486.809 190.672 491.435C181.984 496.866 176.915 494.251 173.214 490.349C173.375 488.78 173.576 487.211 173.697 485.602C175.547 460.177 174.22 430.971 172.812 399.995C169.795 333.819 166.376 258.832 193.126 197.121L193.086 197.161ZM36.6863 633.886C86.0037 615.501 151.17 579.054 169.232 511.912C178.967 516.417 190.069 515.452 200.93 508.774C246.627 549.365 290.635 525.227 304.03 516.055C323.741 535.164 343.21 541.641 360.588 541.641C388.706 541.641 411.394 524.664 420.686 516.458C473.704 562.359 518.315 525.067 531.71 511.349C546.514 527.963 563.409 536.974 581.953 538.101C610.152 539.79 634.569 522.452 646.999 511.469C657.538 525.831 670.169 533.193 684.53 533.354C684.691 533.354 684.892 533.354 685.053 533.354C700.299 533.354 714.016 524.825 723.71 516.618C743.14 580.743 805.289 615.903 852.635 633.845H36.6863V633.886Z" fill="#231815"/>
<path d="M500.334 333.416C503.23 327.503 508.057 324.123 513.126 324.727C522.217 325.813 529.257 325.773 534.687 325.169C541.928 324.365 547.801 329.796 545.669 335.468C533.48 368.295 500.736 448.471 447.396 452.775C447.396 452.775 445.747 452.896 444.902 452.896C444.058 452.896 442.408 452.775 442.408 452.775C389.068 448.471 356.324 368.295 344.136 335.468C342.004 329.796 347.917 324.365 355.117 325.169C360.427 325.773 367.266 325.813 375.995 324.807C381.264 324.204 386.333 327.905 389.028 334.382C396.711 352.807 417.227 403.052 444.54 403.052C471.854 403.052 491.404 351.56 500.294 333.416H500.334Z" fill="#EBB426"/>
<path d="M444.983 462.913H444.822C443.535 462.913 441.604 462.752 441.604 462.752C400.01 459.413 364.047 417.736 334.723 338.928C332.671 333.416 333.636 327.342 337.297 322.635C341.561 317.164 348.762 314.268 356.244 315.112C361.513 315.676 367.789 315.595 374.868 314.75C384.724 313.624 393.936 319.779 398.36 330.44L398.682 331.164C415.738 372.157 431.185 392.915 444.58 392.915C462.159 392.915 479.014 355.824 487.1 337.962C488.668 334.462 490.076 331.365 491.323 328.911C496.191 319.015 505 313.543 514.333 314.63C521.694 315.515 528.171 315.676 533.601 315.072C541.003 314.268 548.284 317.124 552.548 322.595C556.208 327.302 557.174 333.376 555.122 338.888C525.797 417.696 489.835 459.333 448.201 462.712C448.201 462.712 446.27 462.833 444.983 462.833V462.913ZM444.822 442.799H445.304C445.747 442.799 446.552 442.718 446.592 442.718C469.118 440.908 502.587 420.713 535.049 335.227C528.251 335.911 520.487 335.709 511.919 334.704C511.798 334.744 510.511 335.508 509.385 337.842C508.259 340.175 506.931 343.071 505.443 346.37C494.099 371.312 475.152 413.11 444.621 413.11C410.992 413.11 389.35 361.134 380.138 338.968L379.816 338.244C378.73 335.629 377.403 334.824 377.121 334.784C368.915 335.75 361.393 335.87 354.795 335.227C387.218 420.713 420.726 440.908 443.253 442.718C443.333 442.718 444.057 442.638 444.661 442.799H444.862H444.822Z" fill="#231815"/>
<path d="M580.545 184.65C558.059 184.65 539.756 202.955 539.756 225.442C539.756 247.93 558.059 266.234 580.545 266.234C603.032 266.234 621.335 247.93 621.335 225.442C621.335 202.955 603.032 184.65 580.545 184.65Z" fill="#231815"/>
<path d="M303.145 184.65C280.659 184.65 262.356 202.955 262.356 225.442C262.356 247.93 280.659 266.234 303.145 266.234C325.631 266.234 343.934 247.93 343.934 225.442C343.934 202.955 325.631 184.65 303.145 184.65Z" fill="#231815"/>
<path d="M310.506 233.689C318.571 233.689 325.108 227.151 325.108 219.086C325.108 211.021 318.571 204.483 310.506 204.483C302.442 204.483 295.904 211.021 295.904 219.086C295.904 227.151 302.442 233.689 310.506 233.689Z" fill="white"/>
<path d="M589.918 233.689C597.982 233.689 604.52 227.151 604.52 219.086C604.52 211.021 597.982 204.483 589.918 204.483C581.853 204.483 575.316 211.021 575.316 219.086C575.316 227.151 581.853 233.689 589.918 233.689Z" fill="white"/>
<path d="M341.038 187.627C339.228 187.627 337.418 187.145 335.809 186.139L322.413 177.932C310.949 170.932 296.709 170.932 285.285 177.932L271.889 186.139C267.142 189.035 260.948 187.547 258.051 182.8C255.155 178.053 256.643 171.858 261.39 168.961L274.785 160.754C292.726 149.772 315.012 149.772 332.953 160.754L346.348 168.961C351.095 171.858 352.583 178.053 349.687 182.8C347.796 185.897 344.498 187.587 341.119 187.587L341.038 187.627Z" fill="#231815"/>
<path d="M545.749 187.627C542.37 187.627 539.072 185.938 537.181 182.84C534.285 178.093 535.773 171.898 540.52 169.001L553.915 160.795C571.856 149.812 594.142 149.812 612.083 160.795L625.478 169.001C630.225 171.898 631.713 178.093 628.817 182.84C625.92 187.587 619.726 189.076 614.979 186.179L601.583 177.972C590.119 170.973 575.919 170.973 564.455 177.972L551.059 186.179C549.41 187.185 547.6 187.668 545.83 187.668L545.749 187.627Z" fill="#231815"/>
<path d="M549.33 319.055C536.618 294.757 502.587 235.419 447.074 232.281C447.074 232.281 445.345 232.161 444.46 232.201C443.575 232.201 441.845 232.281 441.845 232.281C386.373 235.459 352.301 294.797 339.59 319.055C337.377 323.279 343.492 327.262 351.014 326.698C358.537 326.135 368.352 326.216 382.069 327.945C393.332 329.353 403.67 336.916 411.796 341.663C414.773 343.393 417.91 345.083 421.008 346.652C434.363 353.451 454.436 353.451 467.751 346.652C470.848 345.083 473.986 343.393 476.963 341.663C485.088 336.916 495.426 329.353 506.69 327.945C520.407 326.256 530.463 326.135 537.744 326.698C545.025 327.262 551.381 323.279 549.169 319.055H549.33Z" fill="#EBB426"/>
<path d="M444.5 361.778C434.564 361.778 424.668 359.726 416.583 355.623C413.003 353.812 409.745 352.042 406.848 350.353C405.32 349.468 403.711 348.462 402.021 347.456C395.464 343.393 387.982 338.847 380.943 337.962C369.559 336.554 359.784 336.152 351.899 336.755C343.251 337.439 335.246 334.181 331.464 328.468C328.648 324.204 328.367 318.974 330.74 314.428C368.995 241.292 411.997 223.914 441.322 222.264C441.322 222.264 443.213 222.144 444.5 222.184C445.667 222.184 447.678 222.264 447.678 222.264C477.003 223.954 520.005 241.292 558.26 314.428C560.633 318.934 560.352 324.204 557.536 328.468C553.755 334.181 545.79 337.439 537.141 336.755C529.257 336.152 519.482 336.554 508.098 337.922C501.018 338.807 493.576 343.393 487.019 347.416C485.33 348.462 483.721 349.428 482.192 350.313C479.296 352.002 476.037 353.772 472.457 355.583C464.372 359.686 454.436 361.738 444.5 361.738V361.778ZM359.623 316.319C366.743 316.319 374.707 316.842 383.437 317.928C394.821 319.336 404.676 325.411 412.601 330.279C414.129 331.204 415.618 332.129 417.025 332.934C419.6 334.422 422.536 336.031 425.755 337.64C436.294 342.991 452.827 342.991 463.406 337.64C466.624 335.991 469.561 334.422 472.135 332.934C473.543 332.129 474.992 331.204 476.56 330.279C484.445 325.411 494.3 319.377 505.724 317.928C517.47 316.48 527.849 315.997 536.658 316.52C510.632 269.815 479.618 244.189 446.632 242.298C446.552 242.298 445.506 242.218 444.862 242.218H444.661H444.339C443.736 242.218 442.609 242.298 442.609 242.298C409.624 244.189 378.609 269.774 352.583 316.52C354.876 316.4 357.249 316.319 359.743 316.319H359.623Z" fill="#231815"/>
</g>
<defs>
<clipPath id="clip0_377_125">
<rect width="889" height="654" fill="white"/>
</clipPath>
</defs>
</svg>
